<svg xmlns="http://www.w3.org/2000/svg" xmlns:xlink="http://www.w3.org/1999/xlink" width="450" zoomAndPan="magnify" viewBox="0 0 337.5 206.249992" height="275" preserveAspectRatio="xMidYMid meet" version="1.0"><defs><clipPath id="2f3c5884fd"><path d="M 0.363281 0 L 336.640625 0 L 336.640625 205.503906 L 0.363281 205.503906 Z M 0.363281 0 " clip-rule="nonzero"/></clipPath><clipPath id="a81374026c"><path d="M 12 71 L 50 71 L 50 109 L 12 109 Z M 12 71 " clip-rule="nonzero"/></clipPath><clipPath id="1618439f3f"><path d="M 9.855469 102.410156 L 43.59375 68.675781 L 53.40625 78.488281 L 19.667969 112.226562 Z M 9.855469 102.410156 " clip-rule="nonzero"/></clipPath><clipPath id="5407d30c26"><path d="M 14.484375 97.78125 L 38.503906 73.761719 C 41.058594 71.207031 45.207031 71.207031 47.761719 73.761719 C 50.316406 76.320312 50.316406 80.464844 47.761719 83.019531 L 23.742188 107.039062 C 21.183594 109.597656 17.039062 109.597656 14.484375 107.039062 C 11.925781 104.484375 11.925781 100.339844 14.484375 97.78125 " clip-rule="nonzero"/></clipPath><clipPath id="ee3f92d048"><path d="M 12 96 L 50 96 L 50 134 L 12 134 Z M 12 96 " clip-rule="nonzero"/></clipPath><clipPath id="b262ba698d"><path d="M 19.105469 93.941406 L 52.84375 127.679688 L 43.03125 137.496094 L 9.292969 103.757812 Z M 19.105469 93.941406 " clip-rule="nonzero"/></clipPath><clipPath id="685c192077"><path d="M 23.832031 98.667969 L 47.660156 122.496094 C 50.269531 125.105469 50.269531 129.335938 47.660156 131.945312 C 45.050781 134.554688 40.820312 134.554688 38.210938 131.945312 L 14.382812 108.117188 C 11.773438 105.507812 11.773438 101.277344 14.382812 98.667969 C 16.992188 96.058594 21.222656 96.058594 23.832031 98.667969 " clip-rule="nonzero"/></clipPath><clipPath id="ddc0d60818"><path d="M 77.503906 59.9375 L 90.785156 59.9375 L 90.785156 145.871094 L 77.503906 145.871094 Z M 77.503906 59.9375 " clip-rule="nonzero"/></clipPath><clipPath id="5ceacc68b8"><path d="M 90.785156 66.507812 L 90.785156 139.195312 C 90.785156 142.824219 87.84375 145.765625 84.21875 145.765625 C 80.589844 145.765625 77.648438 142.824219 77.648438 139.195312 L 77.648438 66.507812 C 77.648438 62.878906 80.589844 59.9375 84.21875 59.9375 C 87.84375 59.9375 90.785156 62.878906 90.785156 66.507812 " clip-rule="nonzero"/></clipPath><clipPath id="e6ea260a0d"><path d="M 78 59 L 128 59 L 128 122 L 78 122 Z M 78 59 " clip-rule="nonzero"/></clipPath><clipPath id="8b66aca829"><path d="M 86.101562 57.027344 L 129.761719 117.042969 L 119.023438 124.855469 L 75.363281 64.839844 Z M 86.101562 57.027344 " clip-rule="nonzero"/></clipPath><clipPath id="53ca85f1ea"><path d="M 89.925781 62.28125 L 125.847656 111.65625 C 127.957031 114.558594 127.316406 118.621094 124.414062 120.734375 C 121.511719 122.84375 117.449219 122.203125 115.339844 119.300781 L 79.417969 69.925781 C 77.308594 67.023438 77.949219 62.960938 80.847656 60.851562 C 83.75 58.738281 87.8125 59.378906 89.925781 62.28125 " clip-rule="nonzero"/></clipPath><clipPath id="cd47cd44a0"><path d="M 102 34 L 181 34 L 181 138 L 102 138 Z M 102 34 " clip-rule="nonzero"/></clipPath><clipPath id="1029ffef02"><path d="M 99.789062 132.851562 L 172.402344 31.113281 L 183.847656 39.28125 L 111.234375 141.023438 Z M 99.789062 132.851562 " clip-rule="nonzero"/></clipPath><clipPath id="44566f4e85"><path d="M 103.652344 127.441406 L 168.210938 36.988281 C 169.234375 35.550781 170.785156 34.582031 172.527344 34.292969 C 174.265625 34.003906 176.050781 34.414062 177.484375 35.4375 C 178.917969 36.464844 179.890625 38.015625 180.179688 39.753906 C 180.46875 41.496094 180.058594 43.277344 179.035156 44.714844 L 114.476562 135.167969 C 113.453125 136.601562 111.898438 137.570312 110.160156 137.863281 C 108.417969 138.152344 106.636719 137.742188 105.199219 136.714844 C 103.765625 135.691406 102.796875 134.140625 102.503906 132.398438 C 102.214844 130.660156 102.628906 128.875 103.652344 127.441406 " clip-rule="nonzero"/></clipPath><clipPath id="22f8b3f093"><path d="M 101 67 L 180 67 L 180 172 L 101 172 Z M 101 67 " clip-rule="nonzero"/></clipPath><clipPath id="0a36156847"><path d="M 98.488281 166.558594 L 171.101562 64.820312 L 181.914062 72.535156 L 109.300781 174.277344 Z M 98.488281 166.558594 " clip-rule="nonzero"/></clipPath><clipPath id="1995a3582e"><path d="M 102.320312 161.191406 L 167.234375 70.242188 C 168.25 68.816406 169.789062 67.855469 171.515625 67.566406 C 173.242188 67.28125 175.011719 67.6875 176.433594 68.703125 C 177.859375 69.722656 178.820312 71.261719 179.109375 72.988281 C 179.394531 74.710938 178.988281 76.480469 177.972656 77.90625 L 113.058594 168.855469 C 112.042969 170.277344 110.503906 171.242188 108.777344 171.53125 C 107.050781 171.816406 105.28125 171.410156 103.859375 170.390625 C 102.433594 169.375 101.472656 167.835938 101.183594 166.109375 C 100.894531 164.382812 101.304688 162.617188 102.320312 161.191406 " clip-rule="nonzero"/></clipPath><clipPath id="a6e6df616b"><path d="M 166.808594 68.3125 L 180.089844 68.3125 L 180.089844 146 L 166.808594 146 Z M 166.808594 68.3125 " clip-rule="nonzero"/></clipPath><clipPath id="bb789e6b9b"><path d="M 180.089844 74.882812 L 180.089844 139.199219 C 180.089844 142.828125 177.148438 145.769531 173.519531 145.769531 C 169.890625 145.769531 166.953125 142.828125 166.953125 139.199219 L 166.953125 74.882812 C 166.953125 71.253906 169.890625 68.3125 173.519531 68.3125 C 177.148438 68.3125 180.089844 71.253906 180.089844 74.882812 " clip-rule="nonzero"/></clipPath><clipPath id="b6836ff06e"><path d="M 193 82 L 261 82 L 261 124 L 193 124 Z M 193 82 " clip-rule="nonzero"/></clipPath><clipPath id="16abd2c0d0"><path d="M 196.890625 80.347656 L 263.550781 114.710938 L 257.464844 126.515625 L 190.804688 92.152344 Z M 196.890625 80.347656 " clip-rule="nonzero"/></clipPath><clipPath id="ad6216405f"><path d="M 202.726562 83.359375 L 257.410156 111.546875 C 260.636719 113.210938 261.902344 117.171875 260.242188 120.394531 C 258.578125 123.621094 254.617188 124.886719 251.390625 123.222656 L 196.707031 95.035156 C 193.484375 93.375 192.21875 89.414062 193.878906 86.1875 C 195.542969 82.964844 199.503906 81.695312 202.726562 83.359375 " clip-rule="nonzero"/></clipPath><clipPath id="6026781cf7"><path d="M 220.671875 40.171875 L 233.953125 40.171875 L 233.953125 83.917969 L 220.671875 83.917969 Z M 220.671875 40.171875 " clip-rule="nonzero"/></clipPath><clipPath id="97e26ad16a"><path d="M 233.953125 46.738281 L 233.953125 76.644531 C 233.953125 80.273438 231.011719 83.214844 227.382812 83.214844 C 223.757812 83.214844 220.816406 80.273438 220.816406 76.644531 L 220.816406 46.738281 C 220.816406 43.109375 223.757812 40.171875 227.382812 40.171875 C 231.011719 40.171875 233.953125 43.109375 233.953125 46.738281 " clip-rule="nonzero"/></clipPath><clipPath id="d428f84567"><path d="M 192 34 L 217 34 L 217 58 L 192 58 Z M 192 34 " clip-rule="nonzero"/></clipPath><clipPath id="74eee45312"><path d="M 190.09375 51.195312 L 209.980469 31.308594 L 219.371094 40.699219 L 199.484375 60.585938 Z M 190.09375 51.195312 " clip-rule="nonzero"/></clipPath><clipPath id="23d5aab699"><path d="M 194.738281 46.546875 L 205.0625 36.222656 C 207.628906 33.65625 211.789062 33.65625 214.355469 36.222656 C 216.917969 38.789062 216.917969 42.945312 214.355469 45.511719 L 204.027344 55.839844 C 201.460938 58.402344 197.304688 58.402344 194.738281 55.839844 C 192.171875 53.273438 192.171875 49.113281 194.738281 46.546875 " clip-rule="nonzero"/></clipPath><clipPath id="0bfb85e08a"><path d="M 248.855469 45.140625 L 262.132812 45.140625 L 262.132812 87.328125 L 248.855469 87.328125 Z M 248.855469 45.140625 " clip-rule="nonzero"/></clipPath><clipPath id="d12b3f53ca"><path d="M 262.132812 51.710938 L 262.132812 80.714844 C 262.132812 84.34375 259.195312 87.285156 255.566406 87.285156 C 251.9375 87.285156 248.996094 84.34375 248.996094 80.714844 L 248.996094 51.710938 C 248.996094 48.082031 251.9375 45.140625 255.566406 45.140625 C 259.195312 45.140625 262.132812 48.082031 262.132812 51.710938 " clip-rule="nonzero"/></clipPath><clipPath id="dd1cc9fd14"><path d="M 192.539062 45.140625 L 205.820312 45.140625 L 205.820312 95.921875 L 192.539062 95.921875 Z M 192.539062 45.140625 " clip-rule="nonzero"/></clipPath><clipPath id="5e5a647226"><path d="M 205.820312 51.710938 L 205.820312 88.988281 C 205.820312 92.617188 202.878906 95.558594 199.25 95.558594 C 195.621094 95.558594 192.679688 92.617188 192.679688 88.988281 L 192.679688 51.710938 C 192.679688 48.082031 195.621094 45.140625 199.25 45.140625 C 202.878906 45.140625 205.820312 48.082031 205.820312 51.710938 " clip-rule="nonzero"/></clipPath><clipPath id="a0b20ef54d"><path d="M 237 34 L 262 34 L 262 58 L 237 58 Z M 237 34 " clip-rule="nonzero"/></clipPath><clipPath id="4059637fbe"><path d="M 244.554688 31.578125 L 264.441406 51.464844 L 255.050781 60.855469 L 235.164062 40.96875 Z M 244.554688 31.578125 " clip-rule="nonzero"/></clipPath><clipPath id="52bd57422d"><path d="M 249.199219 36.222656 L 259.527344 46.550781 C 262.089844 49.113281 262.089844 53.273438 259.527344 55.839844 C 256.960938 58.402344 252.800781 58.402344 250.234375 55.839844 L 239.910156 45.511719 C 237.34375 42.945312 237.34375 38.789062 239.910156 36.222656 C 242.472656 33.65625 246.632812 33.65625 249.199219 36.222656 " clip-rule="nonzero"/></clipPath><clipPath id="abf46b4487"><path d="M 204.542969 33.601562 L 249.855469 33.601562 L 249.855469 46.882812 L 204.542969 46.882812 Z M 204.542969 33.601562 " clip-rule="nonzero"/></clipPath><clipPath id="ac43f7ef23"><path d="M 211.113281 33.601562 L 243.148438 33.601562 C 246.777344 33.601562 249.71875 36.542969 249.71875 40.171875 C 249.71875 43.796875 246.777344 46.738281 243.148438 46.738281 L 211.113281 46.738281 C 207.484375 46.738281 204.542969 43.796875 204.542969 40.171875 C 204.542969 36.542969 207.484375 33.601562 211.113281 33.601562 " clip-rule="nonzero"/></clipPath><clipPath id="b247aefde5"><path d="M 237 148 L 262 148 L 262 172 L 237 172 Z M 237 148 " clip-rule="nonzero"/></clipPath><clipPath id="6f6d166595"><path d="M 264.171875 154.609375 L 244.285156 174.496094 L 234.890625 165.105469 L 254.777344 145.21875 Z M 264.171875 154.609375 " clip-rule="nonzero"/></clipPath><clipPath id="5fd9ac50a2"><path d="M 259.523438 159.253906 L 249.199219 169.582031 C 246.632812 172.144531 242.472656 172.144531 239.910156 169.582031 C 237.34375 167.015625 237.34375 162.855469 239.910156 160.289062 L 250.234375 149.964844 C 252.800781 147.398438 256.960938 147.398438 259.523438 149.964844 C 262.089844 152.527344 262.089844 156.6875 259.523438 159.253906 " clip-rule="nonzero"/></clipPath><clipPath id="5a7eb308d9"><path d="M 192.125 119 L 205.40625 119 L 205.40625 160.664062 L 192.125 160.664062 Z M 192.125 119 " clip-rule="nonzero"/></clipPath><clipPath id="cd89e5cc3f"><path d="M 192.125 154.097656 L 192.125 125.546875 C 192.125 121.917969 195.066406 118.976562 198.695312 118.976562 C 202.324219 118.976562 205.261719 121.917969 205.261719 125.546875 L 205.261719 154.097656 C 205.261719 157.722656 202.324219 160.664062 198.695312 160.664062 C 195.066406 160.664062 192.125 157.722656 192.125 154.097656 " clip-rule="nonzero"/></clipPath><clipPath id="76d91ef00c"><path d="M 248.433594 111.441406 L 261.714844 111.441406 L 261.714844 160.660156 L 248.433594 160.660156 Z M 248.433594 111.441406 " clip-rule="nonzero"/></clipPath><clipPath id="41078320f9"><path d="M 248.433594 154.089844 L 248.433594 118.113281 C 248.433594 114.484375 251.375 111.542969 255.003906 111.542969 C 258.628906 111.542969 261.570312 114.484375 261.570312 118.113281 L 261.570312 154.089844 C 261.570312 157.71875 258.628906 160.660156 255.003906 160.660156 C 251.375 160.660156 248.433594 157.71875 248.433594 154.089844 " clip-rule="nonzero"/></clipPath><clipPath id="c65b127eb2"><path d="M 192 148 L 217 148 L 217 172 L 192 172 Z M 192 148 " clip-rule="nonzero"/></clipPath><clipPath id="607becfe1f"><path d="M 209.707031 174.226562 L 189.820312 154.339844 L 199.214844 144.945312 L 219.101562 164.832031 Z M 209.707031 174.226562 " clip-rule="nonzero"/></clipPath><clipPath id="e975d34132"><path d="M 205.0625 169.578125 L 194.738281 159.253906 C 192.171875 156.6875 192.171875 152.527344 194.738281 149.964844 C 197.300781 147.398438 201.460938 147.398438 204.027344 149.964844 L 214.355469 160.289062 C 216.917969 162.855469 216.917969 167.015625 214.355469 169.578125 C 211.789062 172.144531 207.628906 172.144531 205.0625 169.578125 " clip-rule="nonzero"/></clipPath><clipPath id="0e52d3f97e"><path d="M 204.398438 159 L 249.707031 159 L 249.707031 172.199219 L 204.398438 172.199219 Z M 204.398438 159 " clip-rule="nonzero"/></clipPath><clipPath id="5fabad7719"><path d="M 243.140625 172.199219 L 211.101562 172.199219 C 207.472656 172.199219 204.535156 169.257812 204.535156 165.632812 C 204.535156 162.003906 207.472656 159.0625 211.101562 159.0625 L 243.140625 159.0625 C 246.765625 159.0625 249.707031 162.003906 249.707031 165.632812 C 249.707031 169.257812 246.765625 172.199219 243.140625 172.199219 " clip-rule="nonzero"/></clipPath><clipPath id="cf76cdb894"><path d="M 287 96 L 325 96 L 325 134 L 287 134 Z M 287 96 " clip-rule="nonzero"/></clipPath><clipPath id="712420438b"><path d="M 327.636719 103.386719 L 293.898438 137.121094 L 284.082031 127.308594 L 317.820312 93.570312 Z M 327.636719 103.386719 " clip-rule="nonzero"/></clipPath><clipPath id="882768fdbe"><path d="M 323.007812 108.015625 L 298.984375 132.035156 C 296.429688 134.589844 292.285156 134.589844 289.726562 132.035156 C 287.171875 129.476562 287.171875 125.332031 289.726562 122.777344 L 313.75 98.757812 C 316.304688 96.199219 320.449219 96.199219 323.007812 98.757812 C 325.5625 101.3125 325.5625 105.457031 323.007812 108.015625 " clip-rule="nonzero"/></clipPath><clipPath id="fd3f18f7b5"><path d="M 287 71 L 326 71 L 326 110 L 287 110 Z M 287 71 " clip-rule="nonzero"/></clipPath><clipPath id="c56658e4d6"><path d="M 318.382812 111.859375 L 284.644531 78.121094 L 294.460938 68.304688 L 328.199219 102.042969 Z M 318.382812 111.859375 " clip-rule="nonzero"/></clipPath><clipPath id="d5ef88e049"><path d="M 313.660156 107.132812 L 289.828125 83.304688 C 287.21875 80.695312 287.21875 76.464844 289.828125 73.855469 C 292.4375 71.246094 296.667969 71.246094 299.277344 73.855469 L 323.109375 97.683594 C 325.71875 100.292969 325.71875 104.523438 323.109375 107.132812 C 320.5 109.742188 316.269531 109.742188 313.660156 107.132812 " clip-rule="nonzero"/></clipPath></defs><g clip-path="url(#2f3c5884fd)"><path fill="#ffffff" d="M 0.363281 0 L 337.136719 0 L 337.136719 212.542969 L 0.363281 212.542969 Z M 0.363281 0 " fill-opacity="1" fill-rule="nonzero"/><path fill="#ffffff" d="M 0.363281 0 L 337.136719 0 L 337.136719 205.808594 L 0.363281 205.808594 Z M 0.363281 0 " fill-opacity="1" fill-rule="nonzero"/><path fill="#b4d2d9" d="M 0.363281 0 L 337.136719 0 L 337.136719 205.808594 L 0.363281 205.808594 Z M 0.363281 0 " fill-opacity="1" fill-rule="nonzero"/></g><g clip-path="url(#a81374026c)"><g clip-path="url(#1618439f3f)"><g clip-path="url(#5407d30c26)"><path fill="#00061e" d="M 9.855469 102.410156 L 42.980469 69.289062 L 52.179688 78.488281 L 19.054688 111.613281 Z M 9.855469 102.410156 " fill-opacity="1" fill-rule="nonzero"/></g></g></g><g clip-path="url(#ee3f92d048)"><g clip-path="url(#b262ba698d)"><g clip-path="url(#685c192077)"><path fill="#00061e" d="M 19.105469 93.941406 L 52.230469 127.066406 L 43.03125 136.269531 L 9.90625 103.144531 Z M 19.105469 93.941406 " fill-opacity="1" fill-rule="nonzero"/></g></g></g><g clip-path="url(#ddc0d60818)"><g clip-path="url(#5ceacc68b8)"><path fill="#00061e" d="M 90.785156 59.9375 L 90.785156 145.871094 L 77.503906 145.871094 L 77.503906 59.9375 Z M 90.785156 59.9375 " fill-opacity="1" fill-rule="nonzero"/></g></g><g clip-path="url(#e6ea260a0d)"><g clip-path="url(#8b66aca829)"><g clip-path="url(#53ca85f1ea)"><path fill="#00061e" d="M 86.101562 57.027344 L 129.761719 117.042969 L 119.023438 124.855469 L 75.363281 64.839844 Z M 86.101562 57.027344 " fill-opacity="1" fill-rule="nonzero"/></g></g></g><g clip-path="url(#cd47cd44a0)"><g clip-path="url(#1029ffef02)"><g clip-path="url(#44566f4e85)"><path fill="#00061e" d="M 99.789062 132.851562 L 171.949219 31.75 L 182.757812 39.464844 L 110.597656 140.570312 Z M 99.789062 132.851562 " fill-opacity="1" fill-rule="nonzero"/></g></g></g><g clip-path="url(#22f8b3f093)"><g clip-path="url(#0a36156847)"><g clip-path="url(#1995a3582e)"><path fill="#00061e" d="M 98.488281 166.558594 L 171.101562 64.820312 L 181.914062 72.535156 L 109.300781 174.277344 Z M 98.488281 166.558594 " fill-opacity="1" fill-rule="nonzero"/></g></g></g><g clip-path="url(#a6e6df616b)"><g clip-path="url(#bb789e6b9b)"><path fill="#00061e" d="M 180.089844 68.3125 L 180.089844 145.65625 L 166.808594 145.65625 L 166.808594 68.3125 Z M 180.089844 68.3125 " fill-opacity="1" fill-rule="nonzero"/></g></g><g clip-path="url(#b6836ff06e)"><g clip-path="url(#16abd2c0d0)"><g clip-path="url(#ad6216405f)"><path fill="#00061e" d="M 196.890625 80.347656 L 263.550781 114.710938 L 257.464844 126.515625 L 190.804688 92.152344 Z M 196.890625 80.347656 " fill-opacity="1" fill-rule="nonzero"/></g></g></g><g clip-path="url(#6026781cf7)"><g clip-path="url(#97e26ad16a)"><path fill="#00061e" d="M 233.953125 40.171875 L 233.953125 83.136719 L 220.671875 83.136719 L 220.671875 40.171875 Z M 233.953125 40.171875 " fill-opacity="1" fill-rule="nonzero"/></g></g><g clip-path="url(#d428f84567)"><g clip-path="url(#74eee45312)"><g clip-path="url(#23d5aab699)"><path fill="#00061e" d="M 190.09375 51.195312 L 209.980469 31.308594 L 219.371094 40.699219 L 199.484375 60.585938 Z M 190.09375 51.195312 " fill-opacity="1" fill-rule="nonzero"/></g></g></g><g clip-path="url(#0bfb85e08a)"><g clip-path="url(#d12b3f53ca)"><path fill="#00061e" d="M 262.132812 45.140625 L 262.132812 87.328125 L 248.855469 87.328125 L 248.855469 45.140625 Z M 262.132812 45.140625 " fill-opacity="1" fill-rule="nonzero"/></g></g><g clip-path="url(#dd1cc9fd14)"><g clip-path="url(#5e5a647226)"><path fill="#00061e" d="M 205.820312 45.140625 L 205.820312 95.921875 L 192.539062 95.921875 L 192.539062 45.140625 Z M 205.820312 45.140625 " fill-opacity="1" fill-rule="nonzero"/></g></g><g clip-path="url(#a0b20ef54d)"><g clip-path="url(#4059637fbe)"><g clip-path="url(#52bd57422d)"><path fill="#00061e" d="M 244.554688 31.578125 L 264.441406 51.464844 L 255.050781 60.855469 L 235.164062 40.96875 Z M 244.554688 31.578125 " fill-opacity="1" fill-rule="nonzero"/></g></g></g><g clip-path="url(#abf46b4487)"><g clip-path="url(#ac43f7ef23)"><path fill="#00061e" d="M 204.542969 33.601562 L 249.855469 33.601562 L 249.855469 46.882812 L 204.542969 46.882812 Z M 204.542969 33.601562 " fill-opacity="1" fill-rule="nonzero"/></g></g><g clip-path="url(#b247aefde5)"><g clip-path="url(#6f6d166595)"><g clip-path="url(#5fd9ac50a2)"><path fill="#00061e" d="M 264.171875 154.609375 L 244.285156 174.496094 L 234.890625 165.105469 L 254.777344 145.21875 Z M 264.171875 154.609375 " fill-opacity="1" fill-rule="nonzero"/></g></g></g><g clip-path="url(#5a7eb308d9)"><g clip-path="url(#cd89e5cc3f)"><path fill="#00061e" d="M 192.125 160.664062 L 192.125 119.261719 L 205.40625 119.261719 L 205.40625 160.664062 Z M 192.125 160.664062 " fill-opacity="1" fill-rule="nonzero"/></g></g><g clip-path="url(#76d91ef00c)"><g clip-path="url(#41078320f9)"><path fill="#00061e" d="M 248.433594 160.660156 L 248.433594 111.441406 L 261.714844 111.441406 L 261.714844 160.660156 Z M 248.433594 160.660156 " fill-opacity="1" fill-rule="nonzero"/></g></g><g clip-path="url(#c65b127eb2)"><g clip-path="url(#607becfe1f)"><g clip-path="url(#e975d34132)"><path fill="#00061e" d="M 209.707031 174.226562 L 189.820312 154.339844 L 199.214844 144.945312 L 219.101562 164.832031 Z M 209.707031 174.226562 " fill-opacity="1" fill-rule="nonzero"/></g></g></g><g clip-path="url(#0e52d3f97e)"><g clip-path="url(#5fabad7719)"><path fill="#00061e" d="M 249.707031 172.199219 L 204.398438 172.199219 L 204.398438 158.917969 L 249.707031 158.917969 Z M 249.707031 172.199219 " fill-opacity="1" fill-rule="nonzero"/></g></g><g clip-path="url(#cf76cdb894)"><g clip-path="url(#712420438b)"><g clip-path="url(#882768fdbe)"><path fill="#00061e" d="M 327.636719 103.386719 L 294.511719 136.507812 L 285.308594 127.308594 L 318.433594 94.183594 Z M 327.636719 103.386719 " fill-opacity="1" fill-rule="nonzero"/></g></g></g><g clip-path="url(#fd3f18f7b5)"><g clip-path="url(#c56658e4d6)"><g clip-path="url(#d5ef88e049)"><path fill="#00061e" d="M 318.382812 111.859375 L 285.257812 78.734375 L 294.460938 69.53125 L 327.585938 102.65625 Z M 318.382812 111.859375 " fill-opacity="1" fill-rule="nonzero"/></g></g></g></svg>