<svg xmlns="http://www.w3.org/2000/svg" xmlns:xlink="http://www.w3.org/1999/xlink" width="500" zoomAndPan="magnify" viewBox="0 0 375 374.999991" height="500" preserveAspectRatio="xMidYMid meet" version="1.0"><defs><clipPath id="2db9e02d6d"><path d="M 229.492188 63.699219 L 243.398438 63.699219 L 243.398438 161 L 229.492188 161 Z M 229.492188 63.699219 " clip-rule="nonzero"/></clipPath><clipPath id="8a6a3d0cbf"><path d="M 243.398438 70.597656 L 243.398438 153.628906 C 243.398438 157.441406 240.308594 160.527344 236.5 160.527344 C 232.6875 160.527344 229.601562 157.441406 229.601562 153.628906 L 229.601562 70.597656 C 229.601562 66.789062 232.6875 63.699219 236.5 63.699219 C 240.308594 63.699219 243.398438 66.789062 243.398438 70.597656 " clip-rule="nonzero"/></clipPath><clipPath id="932fa20169"><path d="M 111.671875 40.628906 L 125.582031 40.628906 L 125.582031 160.953125 L 111.671875 160.953125 Z M 111.671875 40.628906 " clip-rule="nonzero"/></clipPath><clipPath id="c72ec4cc00"><path d="M 125.582031 47.527344 L 125.582031 153.625 C 125.582031 157.4375 122.492188 160.523438 118.683594 160.523438 C 114.871094 160.523438 111.785156 157.4375 111.785156 153.625 L 111.785156 47.527344 C 111.785156 43.71875 114.871094 40.628906 118.683594 40.628906 C 122.492188 40.628906 125.582031 43.71875 125.582031 47.527344 " clip-rule="nonzero"/></clipPath><clipPath id="e7f58d5700"><path d="M 112 40 L 182 40 L 182 110 L 112 110 Z M 112 40 " clip-rule="nonzero"/></clipPath><clipPath id="a8fb287efb"><path d="M 119.339844 37.382812 L 184.328125 102.367188 L 174.492188 112.203125 L 109.507812 47.214844 Z M 119.339844 37.382812 " clip-rule="nonzero"/></clipPath><clipPath id="f7684be87b"><path d="M 124.21875 42.257812 L 179.4375 97.480469 C 182.132812 100.171875 182.132812 104.542969 179.4375 107.234375 C 176.742188 109.929688 172.375 109.929688 169.679688 107.234375 L 114.460938 52.015625 C 111.769531 49.320312 111.769531 44.953125 114.460938 42.257812 C 117.15625 39.566406 121.523438 39.566406 124.21875 42.257812 " clip-rule="nonzero"/></clipPath><clipPath id="ad73b5fe8b"><path d="M 155 33 L 263 33 L 263 179 L 155 179 Z M 155 33 " clip-rule="nonzero"/></clipPath><clipPath id="ba20e91ffc"><path d="M 152.796875 173.125 L 254.324219 30.160156 L 265.660156 38.210938 L 164.136719 181.175781 Z M 152.796875 173.125 " clip-rule="nonzero"/></clipPath><clipPath id="ddbd78aca6"><path d="M 156.792969 167.5 L 250.171875 36.007812 C 252.375 32.898438 256.683594 32.167969 259.789062 34.375 C 262.894531 36.582031 263.625 40.886719 261.421875 43.996094 L 168.042969 175.488281 C 165.835938 178.59375 161.53125 179.324219 158.421875 177.117188 C 155.316406 174.914062 154.585938 170.605469 156.792969 167.5 " clip-rule="nonzero"/></clipPath><clipPath id="31be7ee725"><path d="M 125 31 L 234 31 L 234 179 L 125 179 Z M 125 31 " clip-rule="nonzero"/></clipPath><clipPath id="c4872620de"><path d="M 122.5625 173.125 L 225.488281 28.191406 L 236.824219 36.242188 L 133.902344 181.179688 Z M 122.5625 173.125 " clip-rule="nonzero"/></clipPath><clipPath id="a3d8f89ea3"><path d="M 126.558594 167.5 L 221.261719 34.140625 C 223.46875 31.03125 227.773438 30.300781 230.882812 32.507812 C 233.988281 34.714844 234.71875 39.019531 232.511719 42.128906 L 137.808594 175.492188 C 135.601562 178.597656 131.292969 179.328125 128.1875 177.121094 C 125.082031 174.914062 124.351562 170.609375 126.558594 167.5 " clip-rule="nonzero"/></clipPath><clipPath id="01e925d79a"><path d="M 150 238 L 225 238 L 225 302 L 150 302 Z M 150 238 " clip-rule="nonzero"/></clipPath><clipPath id="0140fc2205"><path d="M 157.351562 235.144531 L 227.53125 292.902344 L 217.214844 305.433594 L 147.035156 247.675781 Z M 157.351562 235.144531 " clip-rule="nonzero"/></clipPath><clipPath id="453f769064"><path d="M 163.140625 239.910156 L 221.425781 287.878906 C 222.960938 289.140625 223.929688 290.964844 224.125 292.945312 C 224.316406 294.925781 223.714844 296.898438 222.449219 298.433594 L 221.96875 299.015625 C 220.707031 300.550781 218.882812 301.523438 216.90625 301.714844 C 214.925781 301.90625 212.949219 301.304688 211.414062 300.042969 L 153.132812 252.074219 C 151.59375 250.808594 150.625 248.988281 150.433594 247.007812 C 150.238281 245.027344 150.84375 243.054688 152.105469 241.515625 L 152.585938 240.9375 C 153.847656 239.398438 155.671875 238.429688 157.652344 238.238281 C 159.628906 238.042969 161.605469 238.648438 163.140625 239.910156 " clip-rule="nonzero"/></clipPath><clipPath id="ea439c5e56"><path d="M 149.496094 295.15625 L 164.425781 295.15625 L 164.425781 332 L 149.496094 332 Z M 149.496094 295.15625 " clip-rule="nonzero"/></clipPath><clipPath id="04e6415c46"><path d="M 164.425781 302.492188 L 164.425781 324.457031 C 164.425781 328.511719 161.140625 331.796875 157.089844 331.796875 C 153.035156 331.796875 149.75 328.511719 149.75 324.457031 L 149.75 302.492188 C 149.75 298.441406 153.035156 295.15625 157.089844 295.15625 C 161.140625 295.15625 164.425781 298.441406 164.425781 302.492188 " clip-rule="nonzero"/></clipPath><clipPath id="6e3e68413d"><path d="M 150 319 L 172 319 L 172 344 L 150 344 Z M 150 319 " clip-rule="nonzero"/></clipPath><clipPath id="db45b9cf4b"><path d="M 162.046875 346.472656 L 147.242188 325.136719 L 159.511719 316.625 L 174.316406 337.957031 Z M 162.046875 346.472656 " clip-rule="nonzero"/></clipPath><clipPath id="b3591df43e"><path d="M 157.960938 340.578125 L 151.425781 331.164062 C 150.339844 329.601562 149.921875 327.671875 150.257812 325.800781 C 150.597656 323.929688 151.664062 322.269531 153.226562 321.183594 C 154.789062 320.097656 156.71875 319.679688 158.589844 320.019531 C 160.460938 320.355469 162.125 321.421875 163.207031 322.984375 L 169.742188 332.402344 C 170.828125 333.964844 171.246094 335.894531 170.90625 337.765625 C 170.570312 339.636719 169.503906 341.296875 167.941406 342.382812 C 166.378906 343.46875 164.449219 343.886719 162.578125 343.546875 C 160.707031 343.210938 159.042969 342.140625 157.960938 340.578125 " clip-rule="nonzero"/></clipPath><clipPath id="ce51527a72"><path d="M 210.226562 287.527344 L 225.15625 287.527344 L 225.15625 332 L 210.226562 332 Z M 210.226562 287.527344 " clip-rule="nonzero"/></clipPath><clipPath id="3ba9460d25"><path d="M 225.15625 294.867188 L 225.15625 324.457031 C 225.15625 328.507812 221.871094 331.792969 217.820312 331.792969 C 213.765625 331.792969 210.480469 328.507812 210.480469 324.457031 L 210.480469 294.867188 C 210.480469 290.8125 213.765625 287.527344 217.820312 287.527344 C 221.871094 287.527344 225.15625 290.8125 225.15625 294.867188 " clip-rule="nonzero"/></clipPath><clipPath id="c479c8d0db"><path d="M 203 318 L 225 318 L 225 342 L 203 342 Z M 203 318 " clip-rule="nonzero"/></clipPath><clipPath id="2f57ea9659"><path d="M 227.207031 324.136719 L 212.835938 344.984375 L 200.542969 336.511719 L 214.910156 315.664062 Z M 227.207031 324.136719 " clip-rule="nonzero"/></clipPath><clipPath id="ca05af730b"><path d="M 223.136719 330.042969 L 217.03125 338.898438 C 215.953125 340.464844 214.292969 341.535156 212.425781 341.882812 C 210.554688 342.226562 208.625 341.8125 207.058594 340.734375 C 205.492188 339.652344 204.417969 337.996094 204.074219 336.125 C 203.730469 334.253906 204.144531 332.324219 205.222656 330.757812 L 211.328125 321.902344 C 212.40625 320.335938 214.0625 319.261719 215.933594 318.917969 C 217.804688 318.574219 219.734375 318.988281 221.300781 320.066406 C 222.867188 321.148438 223.941406 322.804688 224.285156 324.675781 C 224.628906 326.542969 224.214844 328.476562 223.136719 330.042969 " clip-rule="nonzero"/></clipPath><clipPath id="dc414f2a90"><path d="M 157.097656 328.289062 L 217.472656 328.289062 L 217.472656 343.871094 L 157.097656 343.871094 Z M 157.097656 328.289062 " clip-rule="nonzero"/></clipPath><clipPath id="0fc7de43c8"><path d="M 164.597656 328.289062 L 209.851562 328.289062 C 211.839844 328.289062 213.746094 329.078125 215.152344 330.484375 C 216.558594 331.890625 217.351562 333.796875 217.351562 335.789062 L 217.351562 336.0625 C 217.351562 338.050781 216.558594 339.960938 215.152344 341.367188 C 213.746094 342.773438 211.839844 343.5625 209.851562 343.5625 L 164.597656 343.5625 C 162.605469 343.5625 160.699219 342.773438 159.292969 341.367188 C 157.886719 339.960938 157.097656 338.050781 157.097656 336.0625 L 157.097656 335.789062 C 157.097656 333.796875 157.886719 331.890625 159.292969 330.484375 C 160.699219 329.078125 162.605469 328.289062 164.597656 328.289062 " clip-rule="nonzero"/></clipPath><clipPath id="29cee7c068"><path d="M 179.675781 198.503906 L 194.609375 198.503906 L 194.609375 235 L 179.675781 235 Z M 179.675781 198.503906 " clip-rule="nonzero"/></clipPath><clipPath id="5f56b23c19"><path d="M 194.609375 205.84375 L 194.609375 227.808594 C 194.609375 231.859375 191.324219 235.144531 187.269531 235.144531 C 183.21875 235.144531 179.933594 231.859375 179.933594 227.808594 L 179.933594 205.84375 C 179.933594 201.789062 183.21875 198.503906 187.269531 198.503906 C 191.324219 198.503906 194.609375 201.789062 194.609375 205.84375 " clip-rule="nonzero"/></clipPath><clipPath id="d5cd09f96e"><path d="M 210.5625 208.199219 L 225.496094 208.199219 L 225.496094 245.207031 L 210.5625 245.207031 Z M 210.5625 208.199219 " clip-rule="nonzero"/></clipPath><clipPath id="9a1d4370c6"><path d="M 210.5625 237.867188 L 210.5625 215.902344 C 210.5625 211.847656 213.847656 208.5625 217.902344 208.5625 C 221.953125 208.5625 225.242188 211.847656 225.242188 215.902344 L 225.242188 237.867188 C 225.242188 241.921875 221.953125 245.207031 217.902344 245.207031 C 213.847656 245.207031 210.5625 241.921875 210.5625 237.867188 " clip-rule="nonzero"/></clipPath><clipPath id="280534e00e"><path d="M 203 196 L 225 196 L 225 221 L 203 221 Z M 203 196 " clip-rule="nonzero"/></clipPath><clipPath id="448542c0d6"><path d="M 212.941406 193.886719 L 227.746094 215.21875 L 215.480469 223.734375 L 200.671875 202.398438 Z M 212.941406 193.886719 " clip-rule="nonzero"/></clipPath><clipPath id="b180fc6998"><path d="M 217.027344 199.777344 L 223.5625 209.195312 C 224.648438 210.757812 225.066406 212.6875 224.730469 214.558594 C 224.390625 216.429688 223.324219 218.089844 221.761719 219.171875 C 220.199219 220.257812 218.269531 220.675781 216.398438 220.339844 C 214.527344 220 212.867188 218.933594 211.78125 217.371094 L 205.246094 207.953125 C 204.160156 206.390625 203.742188 204.460938 204.082031 202.589844 C 204.417969 200.71875 205.484375 199.058594 207.046875 197.972656 C 208.609375 196.890625 210.539062 196.46875 212.410156 196.808594 C 214.285156 197.148438 215.945312 198.214844 217.027344 199.777344 " clip-rule="nonzero"/></clipPath><clipPath id="e18d0da09a"><path d="M 149.835938 208.035156 L 164.769531 208.035156 L 164.769531 252.832031 L 149.835938 252.832031 Z M 149.835938 208.035156 " clip-rule="nonzero"/></clipPath><clipPath id="dc42d01498"><path d="M 149.835938 245.492188 L 149.835938 215.90625 C 149.835938 211.851562 153.125 208.566406 157.175781 208.566406 C 161.230469 208.566406 164.515625 211.851562 164.515625 215.90625 L 164.515625 245.492188 C 164.515625 249.546875 161.230469 252.832031 157.175781 252.832031 C 153.125 252.832031 149.835938 249.546875 149.835938 245.492188 " clip-rule="nonzero"/></clipPath><clipPath id="acfb3c9cc9"><path d="M 150 198 L 172 198 L 172 222 L 150 222 Z M 150 198 " clip-rule="nonzero"/></clipPath><clipPath id="028038cb31"><path d="M 147.785156 216.21875 L 162.15625 195.371094 L 174.449219 203.847656 L 160.082031 224.695312 Z M 147.785156 216.21875 " clip-rule="nonzero"/></clipPath><clipPath id="43ae73b754"><path d="M 151.855469 210.316406 L 157.960938 201.460938 C 159.039062 199.894531 160.695312 198.820312 162.566406 198.476562 C 164.4375 198.132812 166.367188 198.546875 167.933594 199.625 C 169.5 200.703125 170.574219 202.359375 170.917969 204.230469 C 171.261719 206.101562 170.847656 208.03125 169.769531 209.597656 L 163.664062 218.457031 C 162.585938 220.019531 160.925781 221.09375 159.058594 221.4375 C 157.1875 221.78125 155.253906 221.367188 153.691406 220.289062 C 152.125 219.210938 151.050781 217.554688 150.707031 215.683594 C 150.363281 213.8125 150.777344 211.882812 151.855469 210.316406 " clip-rule="nonzero"/></clipPath><clipPath id="84df11cf3d"><path d="M 157.519531 196.492188 L 217.894531 196.492188 L 217.894531 212.074219 L 157.519531 212.074219 Z M 157.519531 196.492188 " clip-rule="nonzero"/></clipPath><clipPath id="e787d1d446"><path d="M 210.394531 212.074219 L 165.140625 212.074219 C 163.152344 212.074219 161.246094 211.285156 159.839844 209.878906 C 158.433594 208.472656 157.640625 206.5625 157.640625 204.574219 L 157.640625 204.300781 C 157.640625 202.308594 158.433594 200.402344 159.839844 198.996094 C 161.246094 197.589844 163.152344 196.800781 165.140625 196.800781 L 210.394531 196.800781 C 212.386719 196.800781 214.292969 197.589844 215.699219 198.996094 C 217.105469 200.402344 217.894531 202.308594 217.894531 204.300781 L 217.894531 204.574219 C 217.894531 206.5625 217.105469 208.472656 215.699219 209.878906 C 214.292969 211.285156 212.386719 212.074219 210.394531 212.074219 " clip-rule="nonzero"/></clipPath><clipPath id="6595131718"><path d="M 13.652344 25.230469 L 99.125 25.230469 L 99.125 349.832031 L 13.652344 349.832031 Z M 13.652344 25.230469 " clip-rule="nonzero"/></clipPath><clipPath id="aca72bb994"><path d="M 275.914062 25.230469 L 361.34375 25.230469 L 361.34375 349.832031 L 275.914062 349.832031 Z M 275.914062 25.230469 " clip-rule="nonzero"/></clipPath></defs><rect x="-37.5" width="450" fill="#ffffff" y="-37.499999" height="449.999989" fill-opacity="1"/><rect x="-37.5" width="450" fill="#ffffff" y="-37.499999" height="449.999989" fill-opacity="1"/><rect x="-37.5" width="450" fill="#b4d2d9" y="-37.499999" height="449.999989" fill-opacity="1"/><g clip-path="url(#2db9e02d6d)"><g clip-path="url(#8a6a3d0cbf)"><path fill="#00061e" d="M 243.398438 63.699219 L 243.398438 160.441406 L 229.492188 160.441406 L 229.492188 63.699219 Z M 243.398438 63.699219 " fill-opacity="1" fill-rule="nonzero"/></g></g><g clip-path="url(#932fa20169)"><g clip-path="url(#c72ec4cc00)"><path fill="#00061e" d="M 125.582031 40.628906 L 125.582031 160.347656 L 111.671875 160.347656 L 111.671875 40.628906 Z M 125.582031 40.628906 " fill-opacity="1" fill-rule="nonzero"/></g></g><g clip-path="url(#e7f58d5700)"><g clip-path="url(#a8fb287efb)"><g clip-path="url(#f7684be87b)"><path fill="#00061e" d="M 119.339844 37.382812 L 184.328125 102.367188 L 174.492188 112.203125 L 109.507812 47.214844 Z M 119.339844 37.382812 " fill-opacity="1" fill-rule="nonzero"/></g></g></g><g clip-path="url(#ad73b5fe8b)"><g clip-path="url(#ba20e91ffc)"><g clip-path="url(#ddbd78aca6)"><path fill="#00061e" d="M 152.796875 173.125 L 254.324219 30.160156 L 265.660156 38.210938 L 164.136719 181.175781 Z M 152.796875 173.125 " fill-opacity="1" fill-rule="nonzero"/></g></g></g><g clip-path="url(#31be7ee725)"><g clip-path="url(#c4872620de)"><g clip-path="url(#a3d8f89ea3)"><path fill="#00061e" d="M 122.5625 173.125 L 225.136719 28.683594 L 236.476562 36.734375 L 133.902344 181.179688 Z M 122.5625 173.125 " fill-opacity="1" fill-rule="nonzero"/></g></g></g><g clip-path="url(#01e925d79a)"><g clip-path="url(#0140fc2205)"><g clip-path="url(#453f769064)"><path fill="#00061e" d="M 157.351562 235.144531 L 227.027344 292.492188 L 217.128906 304.519531 L 147.449219 247.175781 Z M 157.351562 235.144531 " fill-opacity="1" fill-rule="nonzero"/></g></g></g><g clip-path="url(#ea439c5e56)"><g clip-path="url(#04e6415c46)"><path fill="#00061e" d="M 164.425781 295.15625 L 164.425781 331.511719 L 149.496094 331.511719 L 149.496094 295.15625 Z M 164.425781 295.15625 " fill-opacity="1" fill-rule="nonzero"/></g></g><g clip-path="url(#6e3e68413d)"><g clip-path="url(#db45b9cf4b)"><g clip-path="url(#b3591df43e)"><path fill="#00061e" d="M 162.046875 346.472656 L 147.242188 325.136719 L 158.976562 316.992188 L 173.78125 338.328125 Z M 162.046875 346.472656 " fill-opacity="1" fill-rule="nonzero"/></g></g></g><g clip-path="url(#ce51527a72)"><g clip-path="url(#3ba9460d25)"><path fill="#00061e" d="M 225.15625 287.527344 L 225.15625 331.675781 L 210.226562 331.675781 L 210.226562 287.527344 Z M 225.15625 287.527344 " fill-opacity="1" fill-rule="nonzero"/></g></g><g clip-path="url(#c479c8d0db)"><g clip-path="url(#2f57ea9659)"><g clip-path="url(#ca05af730b)"><path fill="#00061e" d="M 227.207031 324.136719 L 212.835938 344.984375 L 201.074219 336.878906 L 215.445312 316.03125 Z M 227.207031 324.136719 " fill-opacity="1" fill-rule="nonzero"/></g></g></g><g clip-path="url(#dc414f2a90)"><g clip-path="url(#0fc7de43c8)"><path fill="#00061e" d="M 157.097656 328.289062 L 217.472656 328.289062 L 217.472656 343.871094 L 157.097656 343.871094 Z M 157.097656 328.289062 " fill-opacity="1" fill-rule="nonzero"/></g></g><g clip-path="url(#29cee7c068)"><g clip-path="url(#5f56b23c19)"><path fill="#00061e" d="M 194.609375 198.503906 L 194.609375 234.859375 L 179.675781 234.859375 L 179.675781 198.503906 Z M 194.609375 198.503906 " fill-opacity="1" fill-rule="nonzero"/></g></g><g clip-path="url(#d5cd09f96e)"><g clip-path="url(#9a1d4370c6)"><path fill="#00061e" d="M 210.5625 245.207031 L 210.5625 208.851562 L 225.496094 208.851562 L 225.496094 245.207031 Z M 210.5625 245.207031 " fill-opacity="1" fill-rule="nonzero"/></g></g><g clip-path="url(#280534e00e)"><g clip-path="url(#448542c0d6)"><g clip-path="url(#b180fc6998)"><path fill="#00061e" d="M 212.941406 193.886719 L 227.746094 215.21875 L 216.011719 223.363281 L 201.207031 202.027344 Z M 212.941406 193.886719 " fill-opacity="1" fill-rule="nonzero"/></g></g></g><g clip-path="url(#e18d0da09a)"><g clip-path="url(#dc42d01498)"><path fill="#00061e" d="M 149.835938 252.832031 L 149.835938 208.683594 L 164.769531 208.683594 L 164.769531 252.832031 Z M 149.835938 252.832031 " fill-opacity="1" fill-rule="nonzero"/></g></g><g clip-path="url(#acfb3c9cc9)"><g clip-path="url(#028038cb31)"><g clip-path="url(#43ae73b754)"><path fill="#00061e" d="M 147.785156 216.21875 L 162.15625 195.371094 L 173.914062 203.480469 L 159.546875 224.324219 Z M 147.785156 216.21875 " fill-opacity="1" fill-rule="nonzero"/></g></g></g><g clip-path="url(#84df11cf3d)"><g clip-path="url(#e787d1d446)"><path fill="#00061e" d="M 217.894531 212.074219 L 157.519531 212.074219 L 157.519531 196.492188 L 217.894531 196.492188 Z M 217.894531 212.074219 " fill-opacity="1" fill-rule="nonzero"/></g></g><g clip-path="url(#6595131718)"><path fill="#00061e" d="M 13.84375 180.457031 C 19.40625 179.746094 24.195312 178.746094 28.207031 177.449219 C 32.214844 176.160156 35.511719 174.347656 38.101562 172.023438 C 40.6875 169.695312 42.59375 166.769531 43.824219 163.25 C 45.054688 159.722656 45.667969 155.378906 45.667969 150.207031 C 45.667969 146.457031 45.457031 142.0625 45.035156 137.019531 C 44.617188 131.980469 44.128906 126.695312 43.582031 121.167969 C 43.03125 115.644531 42.546875 110.035156 42.125 104.347656 C 41.703125 98.664062 41.496094 93.261719 41.496094 88.15625 C 41.496094 79.949219 42.449219 72.0625 44.359375 64.5 C 46.265625 56.9375 49.308594 50.25 53.476562 44.429688 C 57.648438 38.613281 63.035156 33.960938 69.632812 30.46875 C 76.230469 26.976562 84.183594 25.234375 93.5 25.234375 L 96.214844 25.234375 C 96.734375 25.234375 97.21875 25.25 97.671875 25.285156 C 98.121094 25.316406 98.609375 25.363281 99.125 25.429688 L 98.351562 35.609375 C 98.023438 35.542969 97.671875 35.511719 97.28125 35.511719 C 96.894531 35.511719 96.539062 35.511719 96.214844 35.511719 L 94.179688 35.511719 C 88.746094 35.511719 84.054688 36.269531 80.113281 37.789062 C 76.164062 39.308594 72.882812 41.683594 70.261719 44.914062 C 67.644531 48.148438 65.703125 52.269531 64.441406 57.277344 C 63.179688 62.285156 62.550781 68.285156 62.550781 75.261719 C 62.550781 79.398438 62.726562 83.648438 63.082031 88.011719 C 63.4375 92.375 63.808594 96.789062 64.199219 101.246094 C 64.589844 105.707031 64.960938 110.183594 65.316406 114.671875 C 65.671875 119.167969 65.847656 123.609375 65.847656 128.003906 C 65.847656 134.339844 65.410156 140.480469 64.539062 146.425781 C 63.664062 152.375 62.066406 157.835938 59.738281 162.808594 C 57.40625 167.789062 54.160156 172.167969 49.984375 175.949219 C 45.8125 179.730469 40.425781 182.621094 33.832031 184.625 L 33.832031 185.402344 C 39.976562 187.40625 45.019531 190.105469 48.96875 193.496094 C 52.910156 196.890625 56 200.847656 58.230469 205.375 C 60.464844 209.898438 62 214.890625 62.839844 220.355469 C 63.679688 225.816406 64.105469 231.582031 64.105469 237.660156 C 64.105469 243.285156 63.808594 248.90625 63.226562 254.527344 C 62.648438 260.152344 62.015625 265.695312 61.335938 271.15625 C 60.65625 276.621094 60.027344 281.984375 59.445312 287.25 C 58.859375 292.519531 58.574219 297.671875 58.574219 302.714844 C 58.574219 309.242188 59.214844 314.816406 60.511719 319.4375 C 61.804688 324.058594 63.710938 327.875 66.234375 330.878906 C 68.757812 333.886719 71.914062 336.082031 75.695312 337.472656 C 79.480469 338.863281 83.894531 339.554688 88.9375 339.554688 L 90.976562 339.554688 C 91.300781 339.554688 91.65625 339.554688 92.042969 339.554688 C 92.433594 339.554688 92.785156 339.523438 93.113281 339.460938 L 93.5 349.640625 C 92.980469 349.703125 92.496094 349.753906 92.042969 349.785156 C 91.589844 349.816406 91.105469 349.832031 90.589844 349.832031 L 87.875 349.832031 C 79.011719 349.832031 71.441406 348.1875 65.167969 344.890625 C 58.894531 341.59375 53.734375 337.148438 49.695312 331.558594 C 45.652344 325.964844 42.691406 319.519531 40.816406 312.21875 C 38.941406 304.910156 38.003906 297.25 38.003906 289.238281 C 38.003906 285.425781 38.164062 281.433594 38.488281 277.265625 C 38.808594 273.09375 39.214844 268.863281 39.699219 264.5625 C 40.183594 260.265625 40.703125 255.984375 41.253906 251.71875 C 41.800781 247.449219 42.320312 243.332031 42.804688 239.355469 C 43.289062 235.382812 43.691406 231.597656 44.019531 228.011719 C 44.34375 224.425781 44.503906 221.175781 44.503906 218.269531 C 44.503906 213.359375 43.875 209.238281 42.609375 205.90625 C 41.351562 202.578125 39.441406 199.816406 36.886719 197.617188 C 34.332031 195.417969 31.117188 193.707031 27.234375 192.480469 C 23.355469 191.253906 18.824219 190.28125 13.652344 189.570312 L 13.84375 180.457031 " fill-opacity="1" fill-rule="nonzero"/></g><g clip-path="url(#aca72bb994)"><path fill="#00061e" d="M 361.148438 180.457031 C 355.589844 179.746094 350.800781 178.746094 346.789062 177.449219 C 342.78125 176.160156 339.484375 174.347656 336.890625 172.023438 C 334.308594 169.695312 332.398438 166.769531 331.167969 163.25 C 329.941406 159.722656 329.328125 155.378906 329.328125 150.207031 C 329.328125 146.457031 329.539062 142.0625 329.957031 137.019531 C 330.378906 131.980469 330.867188 126.695312 331.410156 121.167969 C 331.964844 115.644531 332.449219 110.035156 332.867188 104.347656 C 333.292969 98.664062 333.496094 93.261719 333.496094 88.15625 C 333.496094 79.949219 332.542969 72.0625 330.636719 64.5 C 328.730469 56.9375 325.6875 50.25 321.519531 44.429688 C 317.34375 38.613281 311.960938 33.960938 305.359375 30.46875 C 298.765625 26.976562 290.808594 25.234375 281.496094 25.234375 L 278.777344 25.234375 C 278.261719 25.234375 277.777344 25.25 277.320312 25.285156 C 276.871094 25.316406 276.382812 25.363281 275.867188 25.429688 L 276.644531 35.609375 C 276.96875 35.542969 277.320312 35.511719 277.710938 35.511719 C 278.101562 35.511719 278.453125 35.511719 278.777344 35.511719 L 280.816406 35.511719 C 286.25 35.511719 290.9375 36.269531 294.882812 37.789062 C 298.828125 39.308594 302.113281 41.683594 304.730469 44.914062 C 307.351562 48.148438 309.292969 52.269531 310.550781 57.277344 C 311.816406 62.285156 312.445312 68.285156 312.445312 75.261719 C 312.445312 79.398438 312.265625 83.648438 311.910156 88.011719 C 311.554688 92.375 311.183594 96.789062 310.792969 101.246094 C 310.40625 105.707031 310.035156 110.183594 309.679688 114.671875 C 309.324219 119.167969 309.148438 123.609375 309.148438 128.003906 C 309.148438 134.339844 309.582031 140.480469 310.453125 146.425781 C 311.332031 152.375 312.929688 157.835938 315.257812 162.808594 C 317.585938 167.789062 320.835938 172.167969 325.007812 175.949219 C 329.183594 179.730469 334.566406 182.621094 341.164062 184.625 L 341.164062 185.402344 C 335.019531 187.40625 329.972656 190.105469 326.027344 193.496094 C 322.082031 196.890625 318.996094 200.847656 316.761719 205.375 C 314.53125 209.898438 312.992188 214.890625 312.152344 220.355469 C 311.3125 225.816406 310.890625 231.582031 310.890625 237.660156 C 310.890625 243.285156 311.183594 248.90625 311.765625 254.527344 C 312.347656 260.152344 312.976562 265.695312 313.660156 271.15625 C 314.335938 276.621094 314.96875 281.984375 315.546875 287.25 C 316.132812 292.519531 316.421875 297.671875 316.421875 302.714844 C 316.421875 309.242188 315.777344 314.816406 314.484375 319.4375 C 313.191406 324.058594 311.28125 327.875 308.757812 330.878906 C 306.238281 333.886719 303.082031 336.082031 299.296875 337.472656 C 295.511719 338.863281 291.101562 339.554688 286.054688 339.554688 L 284.015625 339.554688 C 283.695312 339.554688 283.339844 339.554688 282.949219 339.554688 C 282.558594 339.554688 282.207031 339.523438 281.882812 339.460938 L 281.496094 349.640625 C 282.015625 349.703125 282.5 349.753906 282.949219 349.785156 C 283.402344 349.816406 283.886719 349.832031 284.40625 349.832031 L 287.121094 349.832031 C 295.984375 349.832031 303.550781 348.1875 309.824219 344.890625 C 316.101562 341.59375 321.257812 337.148438 325.300781 331.558594 C 329.34375 325.964844 332.300781 319.519531 334.179688 312.21875 C 336.050781 304.910156 336.988281 297.25 336.988281 289.238281 C 336.988281 285.425781 336.832031 281.433594 336.503906 277.265625 C 336.183594 273.09375 335.777344 268.863281 335.292969 264.5625 C 334.808594 260.265625 334.292969 255.984375 333.738281 251.71875 C 333.195312 247.449219 332.675781 243.332031 332.191406 239.355469 C 331.707031 235.382812 331.300781 231.597656 330.976562 228.011719 C 330.652344 224.425781 330.492188 221.175781 330.492188 218.269531 C 330.492188 213.359375 331.121094 209.238281 332.382812 205.90625 C 333.644531 202.578125 335.550781 199.816406 338.105469 197.617188 C 340.660156 195.417969 343.878906 193.707031 347.761719 192.480469 C 351.640625 191.253906 356.167969 190.28125 361.34375 189.570312 L 361.148438 180.457031 " fill-opacity="1" fill-rule="nonzero"/></g></svg>