<svg xmlns="http://www.w3.org/2000/svg" xmlns:xlink="http://www.w3.org/1999/xlink" width="800" zoomAndPan="magnify" viewBox="0 0 600 449.999984" height="600" preserveAspectRatio="xMidYMid meet" version="1.0"><defs><clipPath id="289eb140da"><path d="M 294.273438 150.15625 L 314.007812 150.15625 L 314.007812 287.882812 L 294.273438 287.882812 Z M 294.273438 150.15625 " clip-rule="nonzero"/></clipPath><clipPath id="9d7d28fcf8"><path d="M 314.007812 157.65625 L 314.007812 280.074219 C 314.007812 282.0625 313.21875 283.972656 311.8125 285.378906 C 310.40625 286.785156 308.496094 287.574219 306.507812 287.574219 L 301.925781 287.574219 C 299.9375 287.574219 298.03125 286.785156 296.625 285.378906 C 295.21875 283.972656 294.425781 282.0625 294.425781 280.074219 L 294.425781 157.65625 C 294.425781 155.667969 295.21875 153.757812 296.625 152.351562 C 298.03125 150.945312 299.9375 150.15625 301.925781 150.15625 L 306.507812 150.15625 C 308.496094 150.15625 310.40625 150.945312 311.8125 152.351562 C 313.21875 153.757812 314.007812 155.667969 314.007812 157.65625 " clip-rule="nonzero"/></clipPath><clipPath id="b4bde9ddce"><path d="M 127.058594 117.421875 L 146.792969 117.421875 L 146.792969 287.757812 L 127.058594 287.757812 Z M 127.058594 117.421875 " clip-rule="nonzero"/></clipPath><clipPath id="d4bd9f363c"><path d="M 146.792969 124.921875 L 146.792969 280.078125 C 146.792969 282.066406 146.003906 283.972656 144.597656 285.378906 C 143.191406 286.785156 141.285156 287.578125 139.292969 287.578125 L 134.714844 287.578125 C 132.726562 287.578125 130.816406 286.785156 129.410156 285.378906 C 128.003906 283.972656 127.214844 282.066406 127.214844 280.078125 L 127.214844 124.921875 C 127.214844 122.933594 128.003906 121.023438 129.410156 119.617188 C 130.816406 118.210938 132.726562 117.421875 134.714844 117.421875 L 139.292969 117.421875 C 141.285156 117.421875 143.191406 118.210938 144.597656 119.617188 C 146.003906 121.023438 146.792969 122.933594 146.792969 124.921875 " clip-rule="nonzero"/></clipPath><clipPath id="73b1eef984"><path d="M 131 119 L 228 119 L 228 215 L 131 215 Z M 131 119 " clip-rule="nonzero"/></clipPath><clipPath id="eb76e87296"><path d="M 142.554688 116.117188 L 230.234375 203.796875 L 216.277344 217.753906 L 128.597656 130.074219 Z M 142.554688 116.117188 " clip-rule="nonzero"/></clipPath><clipPath id="6fed676b3c"><path d="M 147.859375 121.421875 L 224.851562 198.414062 C 226.257812 199.820312 227.046875 201.730469 227.046875 203.71875 C 227.046875 205.707031 226.257812 207.617188 224.851562 209.023438 L 221.613281 212.261719 C 220.207031 213.667969 218.296875 214.457031 216.308594 214.457031 C 214.320312 214.457031 212.410156 213.667969 211.003906 212.261719 L 134.011719 135.269531 C 132.605469 133.863281 131.816406 131.953125 131.816406 129.964844 C 131.816406 127.976562 132.605469 126.066406 134.011719 124.660156 L 137.25 121.421875 C 138.660156 120.015625 140.566406 119.226562 142.554688 119.226562 C 144.542969 119.226562 146.453125 120.015625 147.859375 121.421875 " clip-rule="nonzero"/></clipPath><clipPath id="dc5e9fe4cb"><path d="M 188 105 L 343 105 L 343 314 L 188 314 Z M 188 105 " clip-rule="nonzero"/></clipPath><clipPath id="d1095c40c3"><path d="M 185.425781 305.460938 L 329.507812 102.5625 L 345.601562 113.988281 L 201.515625 316.886719 Z M 185.425781 305.460938 " clip-rule="nonzero"/></clipPath><clipPath id="272db7054d"><path d="M 189.769531 299.34375 L 324.941406 108.992188 C 326.09375 107.371094 327.84375 106.273438 329.804688 105.941406 C 331.765625 105.609375 333.777344 106.066406 335.402344 107.21875 L 339.136719 109.871094 C 340.757812 111.023438 341.855469 112.773438 342.1875 114.734375 C 342.519531 116.695312 342.058594 118.707031 340.90625 120.328125 L 205.734375 310.679688 C 204.582031 312.304688 202.832031 313.402344 200.871094 313.734375 C 198.910156 314.066406 196.898438 313.605469 195.277344 312.453125 L 191.539062 309.800781 C 189.917969 308.648438 188.820312 306.902344 188.488281 304.941406 C 188.15625 302.980469 188.617188 300.964844 189.769531 299.34375 " clip-rule="nonzero"/></clipPath><clipPath id="e6f7075efa"><path d="M 145 103 L 302 103 L 302 314 L 145 314 Z M 145 103 " clip-rule="nonzero"/></clipPath><clipPath id="430e947a50"><path d="M 142.511719 305.457031 L 288.335938 100.113281 L 304.425781 111.539062 L 158.605469 316.882812 Z M 142.511719 305.457031 " clip-rule="nonzero"/></clipPath><clipPath id="6cef34e59a"><path d="M 146.855469 299.34375 L 283.914062 106.335938 C 285.066406 104.714844 286.8125 103.617188 288.773438 103.285156 C 290.738281 102.953125 292.75 103.414062 294.371094 104.566406 L 298.105469 107.21875 C 299.726562 108.371094 300.824219 110.117188 301.160156 112.078125 C 301.492188 114.039062 301.03125 116.054688 299.878906 117.675781 L 162.820312 310.679688 C 161.667969 312.300781 159.917969 313.398438 157.957031 313.730469 C 155.996094 314.0625 153.984375 313.601562 152.363281 312.453125 L 148.628906 309.800781 C 147.007812 308.648438 145.90625 306.898438 145.574219 304.9375 C 145.242188 302.976562 145.703125 300.964844 146.855469 299.34375 " clip-rule="nonzero"/></clipPath><clipPath id="d1c33950e9"><path d="M 35.941406 65.875 L 119.679688 65.875 L 119.679688 383.988281 L 35.941406 383.988281 Z M 35.941406 65.875 " clip-rule="nonzero"/></clipPath><clipPath id="78a87f4e89"><path d="M 357 158 L 470 158 L 470 256 L 357 256 Z M 357 158 " clip-rule="nonzero"/></clipPath><clipPath id="81ef6ce7ce"><path d="M 369.414062 155.054688 L 472.808594 240.152344 L 457.730469 258.472656 L 354.335938 173.375 Z M 369.414062 155.054688 " clip-rule="nonzero"/></clipPath><clipPath id="4780f2ce51"><path d="M 375.203125 159.820312 L 466.914062 235.300781 C 470.113281 237.933594 470.570312 242.660156 467.9375 245.855469 L 462.4375 252.542969 C 459.804688 255.742188 455.078125 256.199219 451.878906 253.570312 L 360.167969 178.089844 C 356.96875 175.457031 356.511719 170.730469 359.144531 167.53125 L 364.648438 160.847656 C 367.277344 157.648438 372.003906 157.1875 375.203125 159.820312 " clip-rule="nonzero"/></clipPath><clipPath id="ef6dd1d715"><path d="M 402.226562 105.792969 L 424.328125 105.792969 L 424.328125 161 L 402.226562 161 Z M 402.226562 105.792969 " clip-rule="nonzero"/></clipPath><clipPath id="3512a3cada"><path d="M 424.328125 113.292969 L 424.328125 153.328125 C 424.328125 157.46875 420.972656 160.828125 416.828125 160.828125 L 409.785156 160.828125 C 405.640625 160.828125 402.285156 157.46875 402.285156 153.328125 L 402.285156 113.292969 C 402.285156 109.148438 405.640625 105.792969 409.785156 105.792969 L 416.828125 105.792969 C 420.972656 105.792969 424.328125 109.148438 424.328125 113.292969 " clip-rule="nonzero"/></clipPath><clipPath id="71b5dbd378"><path d="M 448.285156 118.296875 L 470.386719 118.296875 L 470.386719 173.875 L 448.285156 173.875 Z M 448.285156 118.296875 " clip-rule="nonzero"/></clipPath><clipPath id="dc1fb5f2c1"><path d="M 448.285156 166.375 L 448.285156 125.929688 C 448.285156 121.785156 451.640625 118.429688 455.785156 118.429688 L 462.828125 118.429688 C 466.972656 118.429688 470.328125 121.785156 470.328125 125.929688 L 470.328125 166.375 C 470.328125 170.519531 466.972656 173.875 462.828125 173.875 L 455.785156 173.875 C 451.640625 173.875 448.285156 170.519531 448.285156 166.375 " clip-rule="nonzero"/></clipPath><clipPath id="53ee5a7ca2"><path d="M 440 104 L 470 104 L 470 135 L 440 135 Z M 440 104 " clip-rule="nonzero"/></clipPath><clipPath id="e6c4d60979"><path d="M 457.738281 101.960938 L 472.839844 123.527344 L 452.605469 137.695312 L 437.503906 116.128906 Z M 457.738281 101.960938 " clip-rule="nonzero"/></clipPath><clipPath id="9564f001a0"><path d="M 462.039062 108.105469 L 468.402344 117.191406 C 470.777344 120.585938 469.953125 125.261719 466.5625 127.636719 L 458.757812 133.101562 C 455.363281 135.476562 450.6875 134.652344 448.3125 131.257812 L 441.949219 122.171875 C 439.574219 118.78125 440.398438 114.101562 443.789062 111.726562 L 451.59375 106.261719 C 454.988281 103.886719 459.664062 104.710938 462.039062 108.105469 " clip-rule="nonzero"/></clipPath><clipPath id="dc35ff151c"><path d="M 355.554688 114.613281 L 377.65625 114.613281 L 377.65625 177.992188 L 355.554688 177.992188 Z M 355.554688 114.613281 " clip-rule="nonzero"/></clipPath><clipPath id="dfd62482f7"><path d="M 355.554688 170.492188 L 355.554688 122.207031 C 355.554688 118.066406 358.914062 114.707031 363.054688 114.707031 L 370.101562 114.707031 C 374.242188 114.707031 377.601562 118.066406 377.601562 122.207031 L 377.601562 170.492188 C 377.601562 174.636719 374.242188 177.992188 370.101562 177.992188 L 363.054688 177.992188 C 358.914062 177.992188 355.554688 174.636719 355.554688 170.492188 " clip-rule="nonzero"/></clipPath><clipPath id="307a3ac7a0"><path d="M 368.566406 103.101562 L 461.527344 103.101562 L 461.527344 126.179688 L 368.566406 126.179688 Z M 368.566406 103.101562 " clip-rule="nonzero"/></clipPath><clipPath id="55dbd8ec2f"><path d="M 454.027344 126.179688 L 376.308594 126.179688 C 372.167969 126.179688 368.808594 122.820312 368.808594 118.679688 L 368.808594 110.738281 C 368.808594 106.597656 372.167969 103.238281 376.308594 103.238281 L 454.027344 103.238281 C 458.167969 103.238281 461.527344 106.597656 461.527344 110.738281 L 461.527344 118.679688 C 461.527344 122.820312 458.167969 126.179688 454.027344 126.179688 " clip-rule="nonzero"/></clipPath><clipPath id="63438a4e3d"><path d="M 355 103 L 388 103 L 388 135 L 355 135 Z M 355 103 " clip-rule="nonzero"/></clipPath><clipPath id="875b69c6d0"><path d="M 369.140625 137.691406 L 352.59375 121.144531 L 373.738281 100 L 390.285156 116.546875 Z M 369.140625 137.691406 " clip-rule="nonzero"/></clipPath><clipPath id="a96e861396"><path d="M 363.839844 132.386719 L 358.046875 126.597656 C 355.117188 123.667969 355.117188 118.917969 358.046875 115.988281 L 368.511719 105.527344 C 371.441406 102.597656 376.1875 102.597656 379.117188 105.527344 L 384.910156 111.316406 C 387.835938 114.246094 387.835938 118.996094 384.910156 121.925781 L 374.445312 132.386719 C 371.515625 135.316406 366.769531 135.316406 363.839844 132.386719 " clip-rule="nonzero"/></clipPath><clipPath id="88145d2e1d"><path d="M 355.03125 243.097656 L 377.132812 243.097656 L 377.132812 299.976562 L 355.03125 299.976562 Z M 355.03125 243.097656 " clip-rule="nonzero"/></clipPath><clipPath id="25bd44ad6c"><path d="M 377.132812 250.597656 L 377.132812 292.386719 C 377.132812 296.527344 373.777344 299.886719 369.632812 299.886719 L 362.589844 299.886719 C 358.445312 299.886719 355.089844 296.527344 355.089844 292.386719 L 355.089844 250.597656 C 355.089844 246.457031 358.445312 243.097656 362.589844 243.097656 L 369.632812 243.097656 C 373.777344 243.097656 377.132812 246.457031 377.132812 250.597656 " clip-rule="nonzero"/></clipPath><clipPath id="8c8f075a72"><path d="M 355 282 L 386 282 L 386 313 L 355 313 Z M 355 282 " clip-rule="nonzero"/></clipPath><clipPath id="c69bd907d1"><path d="M 368.027344 315.511719 L 352.738281 293.679688 L 372.972656 279.507812 L 388.261719 301.339844 Z M 368.027344 315.511719 " clip-rule="nonzero"/></clipPath><clipPath id="f62cccef54"><path d="M 363.722656 309.367188 L 357.046875 299.832031 C 354.671875 296.441406 355.496094 291.761719 358.890625 289.386719 L 366.695312 283.921875 C 370.085938 281.546875 374.765625 282.371094 377.140625 285.765625 L 383.816406 295.296875 C 386.191406 298.691406 385.367188 303.367188 381.972656 305.742188 L 374.167969 311.207031 C 370.777344 313.585938 366.101562 312.761719 363.722656 309.367188 " clip-rule="nonzero"/></clipPath><clipPath id="023c6eacae"><path d="M 447.757812 235.859375 L 469.863281 235.859375 L 469.863281 302.492188 L 447.757812 302.492188 Z M 447.757812 235.859375 " clip-rule="nonzero"/></clipPath><clipPath id="3a50af6a0c"><path d="M 469.863281 243.359375 L 469.863281 294.761719 C 469.863281 298.90625 466.503906 302.261719 462.363281 302.261719 L 455.316406 302.261719 C 451.171875 302.261719 447.816406 298.90625 447.816406 294.761719 L 447.816406 243.359375 C 447.816406 239.21875 451.171875 235.859375 455.316406 235.859375 L 462.363281 235.859375 C 466.503906 235.859375 469.863281 239.21875 469.863281 243.359375 " clip-rule="nonzero"/></clipPath><clipPath id="4e45cb6b9a"><path d="M 363.890625 290.792969 L 456.851562 290.792969 L 456.851562 313.867188 L 363.890625 313.867188 Z M 363.890625 290.792969 " clip-rule="nonzero"/></clipPath><clipPath id="07e3d150cd"><path d="M 371.390625 290.792969 L 449.109375 290.792969 C 453.253906 290.792969 456.609375 294.148438 456.609375 298.292969 L 456.609375 306.234375 C 456.609375 310.375 453.253906 313.734375 449.109375 313.734375 L 371.390625 313.734375 C 367.25 313.734375 363.890625 310.375 363.890625 306.234375 L 363.890625 298.292969 C 363.890625 294.148438 367.25 290.792969 371.390625 290.792969 " clip-rule="nonzero"/></clipPath><clipPath id="1ca8ed5622"><path d="M 438 282 L 470 282 L 470 314 L 438 314 Z M 438 282 " clip-rule="nonzero"/></clipPath><clipPath id="0ac3e43eaf"><path d="M 456.308594 279.246094 L 472.855469 295.792969 L 451.480469 317.167969 L 434.933594 300.621094 Z M 456.308594 279.246094 " clip-rule="nonzero"/></clipPath><clipPath id="a70571c555"><path d="M 461.609375 284.550781 L 467.402344 290.339844 C 470.332031 293.269531 470.332031 298.019531 467.402344 300.945312 L 456.851562 311.496094 C 453.925781 314.425781 449.175781 314.425781 446.246094 311.496094 L 440.457031 305.703125 C 437.527344 302.777344 437.527344 298.027344 440.457031 295.097656 L 451.003906 284.550781 C 453.933594 281.621094 458.683594 281.621094 461.609375 284.550781 " clip-rule="nonzero"/></clipPath><clipPath id="c8bb22b055"><path d="M 480.320312 66.007812 L 564.054688 66.007812 L 564.054688 384.117188 L 480.320312 384.117188 Z M 480.320312 66.007812 " clip-rule="nonzero"/></clipPath></defs><rect x="-60" width="720" fill="#ffffff" y="-44.999998" height="539.99998" fill-opacity="1"/><rect x="-60" width="720" fill="#ffffff" y="-44.999998" height="539.99998" fill-opacity="1"/><rect x="-60" width="720" fill="#b4d2d9" y="-44.999998" height="539.99998" fill-opacity="1"/><g clip-path="url(#289eb140da)"><g clip-path="url(#9d7d28fcf8)"><path fill="#00061e" d="M 314.007812 150.15625 L 314.007812 287.453125 L 294.273438 287.453125 L 294.273438 150.15625 Z M 314.007812 150.15625 " fill-opacity="1" fill-rule="nonzero"/></g></g><g clip-path="url(#b4bde9ddce)"><g clip-path="url(#d4bd9f363c)"><path fill="#00061e" d="M 146.792969 117.421875 L 146.792969 287.757812 L 127.058594 287.757812 L 127.058594 117.421875 Z M 146.792969 117.421875 " fill-opacity="1" fill-rule="nonzero"/></g></g><g clip-path="url(#73b1eef984)"><g clip-path="url(#eb76e87296)"><g clip-path="url(#6fed676b3c)"><path fill="#00061e" d="M 142.554688 116.117188 L 230.234375 203.796875 L 216.277344 217.753906 L 128.597656 130.074219 Z M 142.554688 116.117188 " fill-opacity="1" fill-rule="nonzero"/></g></g></g><g clip-path="url(#dc5e9fe4cb)"><g clip-path="url(#d1095c40c3)"><g clip-path="url(#272db7054d)"><path fill="#00061e" d="M 185.425781 305.460938 L 329.261719 102.914062 L 345.351562 114.339844 L 201.515625 316.886719 Z M 185.425781 305.460938 " fill-opacity="1" fill-rule="nonzero"/></g></g></g><g clip-path="url(#e6f7075efa)"><g clip-path="url(#430e947a50)"><g clip-path="url(#6cef34e59a)"><path fill="#00061e" d="M 142.511719 305.457031 L 288.335938 100.113281 L 304.425781 111.539062 L 158.605469 316.882812 Z M 142.511719 305.457031 " fill-opacity="1" fill-rule="nonzero"/></g></g></g><g clip-path="url(#d1c33950e9)"><path fill="#00061e" d="M 36.132812 217.996094 C 41.582031 217.300781 46.269531 216.320312 50.199219 215.050781 C 54.125 213.789062 57.359375 212.011719 59.894531 209.730469 C 62.425781 207.453125 64.296875 204.585938 65.503906 201.132812 C 66.703125 197.679688 67.304688 193.421875 67.304688 188.351562 C 67.304688 184.679688 67.101562 180.371094 66.6875 175.429688 C 66.277344 170.488281 65.800781 165.3125 65.265625 159.894531 C 64.722656 154.480469 64.25 148.984375 63.839844 143.410156 C 63.421875 137.839844 63.222656 132.546875 63.222656 127.542969 C 63.222656 119.5 64.15625 111.773438 66.023438 104.359375 C 67.890625 96.949219 70.871094 90.394531 74.957031 84.691406 C 79.046875 78.992188 84.320312 74.429688 90.785156 71.011719 C 97.246094 67.589844 105.039062 65.878906 114.164062 65.878906 L 116.828125 65.878906 C 117.332031 65.878906 117.808594 65.894531 118.253906 65.925781 C 118.695312 65.960938 119.171875 66.007812 119.679688 66.070312 L 118.917969 76.046875 C 118.597656 75.984375 118.253906 75.953125 117.871094 75.953125 C 117.492188 75.953125 117.144531 75.953125 116.828125 75.953125 L 114.832031 75.953125 C 109.507812 75.953125 104.914062 76.695312 101.050781 78.183594 C 97.183594 79.671875 93.96875 82 91.402344 85.164062 C 88.835938 88.335938 86.933594 92.375 85.699219 97.28125 C 84.460938 102.191406 83.84375 108.066406 83.84375 114.90625 C 83.84375 118.960938 84.019531 123.125 84.367188 127.402344 C 84.714844 131.675781 85.078125 136 85.460938 140.371094 C 85.84375 144.742188 86.207031 149.128906 86.554688 153.527344 C 86.902344 157.933594 87.078125 162.289062 87.078125 166.597656 C 87.078125 172.804688 86.648438 178.820312 85.792969 184.648438 C 84.9375 190.476562 83.371094 195.828125 81.089844 200.703125 C 78.808594 205.585938 75.625 209.875 71.535156 213.582031 C 67.449219 217.285156 62.171875 220.121094 55.710938 222.085938 L 55.710938 222.84375 C 61.730469 224.808594 66.671875 227.453125 70.539062 230.777344 C 74.402344 234.105469 77.429688 237.980469 79.613281 242.417969 C 81.800781 246.851562 83.308594 251.746094 84.128906 257.097656 C 84.953125 262.449219 85.367188 268.101562 85.367188 274.058594 C 85.367188 279.570312 85.078125 285.078125 84.511719 290.589844 C 83.941406 296.097656 83.324219 301.535156 82.65625 306.882812 C 81.992188 312.238281 81.375 317.496094 80.804688 322.65625 C 80.230469 327.820312 79.949219 332.871094 79.949219 337.8125 C 79.949219 344.207031 80.582031 349.671875 81.847656 354.199219 C 83.113281 358.730469 84.984375 362.46875 87.457031 365.414062 C 89.925781 368.359375 93.019531 370.511719 96.722656 371.875 C 100.433594 373.238281 104.753906 373.917969 109.699219 373.917969 L 111.695312 373.917969 C 112.011719 373.917969 112.359375 373.917969 112.738281 373.917969 C 113.121094 373.917969 113.464844 373.886719 113.785156 373.820312 L 114.164062 383.796875 C 113.65625 383.863281 113.183594 383.910156 112.738281 383.941406 C 112.296875 383.972656 111.820312 383.988281 111.316406 383.988281 L 108.652344 383.988281 C 99.972656 383.988281 92.558594 382.375 86.410156 379.140625 C 80.265625 375.914062 75.210938 371.558594 71.25 366.078125 C 67.289062 360.597656 64.390625 354.28125 62.554688 347.125 C 60.71875 339.964844 59.800781 332.457031 59.800781 324.601562 C 59.800781 320.867188 59.957031 316.953125 60.273438 312.871094 C 60.589844 308.785156 60.988281 304.636719 61.460938 300.421875 C 61.9375 296.210938 62.441406 292.015625 62.984375 287.835938 C 63.519531 283.652344 64.027344 279.617188 64.503906 275.71875 C 64.976562 271.824219 65.371094 268.117188 65.691406 264.605469 C 66.007812 261.085938 66.167969 257.902344 66.167969 255.054688 C 66.167969 250.242188 65.550781 246.203125 64.3125 242.9375 C 63.078125 239.679688 61.207031 236.96875 58.707031 234.816406 C 56.203125 232.660156 53.050781 230.984375 49.246094 229.78125 C 45.445312 228.578125 41.011719 227.625 35.941406 226.929688 L 36.132812 217.996094 " fill-opacity="1" fill-rule="nonzero"/></g><g clip-path="url(#78a87f4e89)"><g clip-path="url(#81ef6ce7ce)"><g clip-path="url(#4780f2ce51)"><path fill="#00061e" d="M 369.414062 155.054688 L 472.808594 240.152344 L 457.730469 258.472656 L 354.335938 173.375 Z M 369.414062 155.054688 " fill-opacity="1" fill-rule="nonzero"/></g></g></g><g clip-path="url(#ef6dd1d715)"><g clip-path="url(#3512a3cada)"><path fill="#00061e" d="M 424.328125 105.792969 L 424.328125 160.722656 L 402.226562 160.722656 L 402.226562 105.792969 Z M 424.328125 105.792969 " fill-opacity="1" fill-rule="nonzero"/></g></g><g clip-path="url(#71b5dbd378)"><g clip-path="url(#dc1fb5f2c1)"><path fill="#00061e" d="M 448.285156 173.875 L 448.285156 118.296875 L 470.386719 118.296875 L 470.386719 173.875 Z M 448.285156 173.875 " fill-opacity="1" fill-rule="nonzero"/></g></g><g clip-path="url(#53ee5a7ca2)"><g clip-path="url(#e6c4d60979)"><g clip-path="url(#9564f001a0)"><path fill="#00061e" d="M 457.738281 101.960938 L 472.652344 123.261719 L 452.683594 137.242188 L 437.769531 115.941406 Z M 457.738281 101.960938 " fill-opacity="1" fill-rule="nonzero"/></g></g></g><g clip-path="url(#dc35ff151c)"><g clip-path="url(#dfd62482f7)"><path fill="#00061e" d="M 355.554688 177.992188 L 355.554688 114.613281 L 377.65625 114.613281 L 377.65625 177.992188 Z M 355.554688 177.992188 " fill-opacity="1" fill-rule="nonzero"/></g></g><g clip-path="url(#307a3ac7a0)"><g clip-path="url(#55dbd8ec2f)"><path fill="#00061e" d="M 461.527344 126.179688 L 368.894531 126.179688 L 368.894531 103.101562 L 461.527344 103.101562 Z M 461.527344 126.179688 " fill-opacity="1" fill-rule="nonzero"/></g></g><g clip-path="url(#63438a4e3d)"><g clip-path="url(#875b69c6d0)"><g clip-path="url(#a96e861396)"><path fill="#00061e" d="M 369.140625 137.691406 L 352.824219 121.371094 L 373.96875 100.226562 L 390.285156 116.546875 Z M 369.140625 137.691406 " fill-opacity="1" fill-rule="nonzero"/></g></g></g><g clip-path="url(#88145d2e1d)"><g clip-path="url(#25bd44ad6c)"><path fill="#00061e" d="M 377.132812 243.097656 L 377.132812 299.976562 L 355.03125 299.976562 L 355.03125 243.097656 Z M 377.132812 243.097656 " fill-opacity="1" fill-rule="nonzero"/></g></g><g clip-path="url(#8c8f075a72)"><g clip-path="url(#c69bd907d1)"><g clip-path="url(#f62cccef54)"><path fill="#00061e" d="M 368.027344 315.511719 L 352.738281 293.679688 L 372.707031 279.695312 L 387.996094 301.527344 Z M 368.027344 315.511719 " fill-opacity="1" fill-rule="nonzero"/></g></g></g><g clip-path="url(#023c6eacae)"><g clip-path="url(#3a50af6a0c)"><path fill="#00061e" d="M 469.863281 235.859375 L 469.863281 302.167969 L 447.757812 302.167969 L 447.757812 235.859375 Z M 469.863281 235.859375 " fill-opacity="1" fill-rule="nonzero"/></g></g><g clip-path="url(#4e45cb6b9a)"><g clip-path="url(#07e3d150cd)"><path fill="#00061e" d="M 363.890625 290.792969 L 456.527344 290.792969 L 456.527344 313.867188 L 363.890625 313.867188 Z M 363.890625 290.792969 " fill-opacity="1" fill-rule="nonzero"/></g></g><g clip-path="url(#1ca8ed5622)"><g clip-path="url(#0ac3e43eaf)"><g clip-path="url(#a70571c555)"><path fill="#00061e" d="M 456.308594 279.246094 L 472.625 295.5625 L 451.480469 316.707031 L 435.164062 300.390625 Z M 456.308594 279.246094 " fill-opacity="1" fill-rule="nonzero"/></g></g></g><g clip-path="url(#c8bb22b055)"><path fill="#00061e" d="M 563.867188 232 C 558.417969 232.695312 553.726562 233.675781 549.796875 234.941406 C 545.871094 236.207031 542.640625 237.984375 540.101562 240.265625 C 537.570312 242.542969 535.699219 245.410156 534.496094 248.859375 C 533.292969 252.316406 532.691406 256.574219 532.691406 261.644531 C 532.691406 265.316406 532.898438 269.625 533.308594 274.566406 C 533.71875 279.507812 534.195312 284.683594 534.730469 290.101562 C 535.273438 295.515625 535.746094 301.007812 536.160156 306.585938 C 536.574219 312.15625 536.777344 317.449219 536.777344 322.453125 C 536.777344 330.496094 535.84375 338.222656 533.972656 345.636719 C 532.105469 353.046875 529.125 359.601562 525.039062 365.304688 C 520.953125 371.003906 515.675781 375.566406 509.210938 378.984375 C 502.75 382.40625 494.957031 384.117188 485.832031 384.117188 L 483.167969 384.117188 C 482.664062 384.117188 482.1875 384.101562 481.742188 384.066406 C 481.304688 384.035156 480.824219 383.988281 480.320312 383.925781 L 481.078125 373.949219 C 481.398438 374.011719 481.742188 374.042969 482.125 374.042969 C 482.503906 374.042969 482.851562 374.042969 483.167969 374.042969 L 485.167969 374.042969 C 490.488281 374.042969 495.082031 373.300781 498.945312 371.8125 C 502.8125 370.324219 506.027344 367.996094 508.59375 364.828125 C 511.160156 361.660156 513.0625 357.621094 514.296875 352.714844 C 515.535156 347.804688 516.152344 341.929688 516.152344 335.089844 C 516.152344 331.035156 515.976562 326.871094 515.628906 322.59375 C 515.28125 318.316406 514.917969 313.996094 514.535156 309.625 C 514.15625 305.253906 513.789062 300.867188 513.441406 296.46875 C 513.09375 292.0625 512.921875 287.707031 512.921875 283.398438 C 512.921875 277.191406 513.347656 271.175781 514.203125 265.347656 C 515.058594 259.519531 516.625 254.164062 518.90625 249.292969 C 521.1875 244.410156 524.371094 240.121094 528.460938 236.414062 C 532.546875 232.710938 537.824219 229.875 544.285156 227.910156 L 544.285156 227.152344 C 538.265625 225.1875 533.324219 222.542969 529.457031 219.21875 C 525.59375 215.890625 522.566406 212.011719 520.382812 207.578125 C 518.195312 203.144531 516.6875 198.25 515.867188 192.898438 C 515.042969 187.546875 514.628906 181.894531 514.628906 175.9375 C 514.628906 170.425781 514.917969 164.917969 515.488281 159.40625 C 516.054688 153.894531 516.671875 148.460938 517.339844 143.113281 C 518.003906 137.757812 518.621094 132.5 519.191406 127.339844 C 519.765625 122.175781 520.046875 117.125 520.046875 112.183594 C 520.046875 105.789062 519.417969 100.324219 518.148438 95.796875 C 516.882812 91.265625 515.011719 87.527344 512.539062 84.582031 C 510.070312 81.636719 506.976562 79.484375 503.273438 78.121094 C 499.5625 76.757812 495.242188 76.078125 490.300781 76.078125 L 488.300781 76.078125 C 487.984375 76.078125 487.636719 76.078125 487.257812 76.078125 C 486.875 76.078125 486.53125 76.109375 486.210938 76.175781 L 485.832031 66.195312 C 486.339844 66.132812 486.816406 66.085938 487.257812 66.054688 C 487.699219 66.023438 488.175781 66.007812 488.683594 66.007812 L 491.34375 66.007812 C 500.027344 66.007812 507.441406 67.621094 513.585938 70.851562 C 519.734375 74.082031 524.785156 78.4375 528.746094 83.917969 C 532.707031 89.398438 535.605469 95.714844 537.445312 102.871094 C 539.277344 110.03125 540.195312 117.539062 540.195312 125.394531 C 540.195312 129.128906 540.042969 133.042969 539.722656 137.125 C 539.410156 141.210938 539.011719 145.359375 538.535156 149.570312 C 538.0625 153.785156 537.554688 157.980469 537.011719 162.160156 C 536.476562 166.34375 535.96875 170.378906 535.496094 174.277344 C 535.019531 178.171875 534.625 181.878906 534.304688 185.390625 C 533.988281 188.910156 533.828125 192.089844 533.828125 194.941406 C 533.828125 199.753906 534.445312 203.792969 535.683594 207.058594 C 536.917969 210.316406 538.789062 213.027344 541.292969 215.179688 C 543.792969 217.332031 546.945312 219.011719 550.75 220.214844 C 554.550781 221.417969 558.984375 222.371094 564.054688 223.066406 L 563.867188 232 " fill-opacity="1" fill-rule="nonzero"/></g></svg>