<svg xmlns="http://www.w3.org/2000/svg" xmlns:xlink="http://www.w3.org/1999/xlink" width="500" zoomAndPan="magnify" viewBox="0 0 375 374.999991" height="500" preserveAspectRatio="xMidYMid meet" version="1.0"><defs><clipPath id="27ec9ae0ce"><path d="M 14 146 L 61 146 L 61 194 L 14 194 Z M 14 146 " clip-rule="nonzero"/></clipPath><clipPath id="0ab77fa268"><path d="M 11.742188 187.226562 L 55.191406 143.78125 L 64.199219 152.789062 L 20.75 196.234375 Z M 11.742188 187.226562 " clip-rule="nonzero"/></clipPath><clipPath id="22b18fa6aa"><path d="M 15.996094 182.972656 L 50.605469 148.363281 C 51.734375 147.234375 53.265625 146.601562 54.859375 146.601562 C 56.457031 146.601562 57.988281 147.234375 59.113281 148.363281 C 60.242188 149.492188 60.875 151.023438 60.875 152.617188 C 60.875 154.214844 60.242188 155.742188 59.113281 156.871094 L 24.503906 191.480469 C 23.375 192.609375 21.847656 193.246094 20.25 193.246094 C 18.65625 193.246094 17.125 192.609375 15.996094 191.480469 C 14.867188 190.355469 14.234375 188.824219 14.234375 187.226562 C 14.234375 185.632812 14.867188 184.101562 15.996094 182.972656 " clip-rule="nonzero"/></clipPath><clipPath id="4f7595847e"><path d="M 14 181 L 61 181 L 61 229 L 14 229 Z M 14 181 " clip-rule="nonzero"/></clipPath><clipPath id="379df5847e"><path d="M 20.246094 179.261719 L 63.691406 222.710938 L 54.683594 231.71875 L 11.238281 188.269531 Z M 20.246094 179.261719 " clip-rule="nonzero"/></clipPath><clipPath id="765903f6df"><path d="M 24.5 183.515625 L 59.109375 218.125 C 60.238281 219.253906 60.871094 220.785156 60.871094 222.378906 C 60.871094 223.976562 60.238281 225.503906 59.109375 226.632812 C 57.980469 227.761719 56.449219 228.394531 54.855469 228.394531 C 53.257812 228.394531 51.730469 227.761719 50.601562 226.632812 L 15.988281 192.023438 C 14.863281 190.894531 14.226562 189.363281 14.226562 187.769531 C 14.226562 186.171875 14.863281 184.644531 15.988281 183.515625 C 17.117188 182.386719 18.648438 181.753906 20.246094 181.753906 C 21.839844 181.753906 23.371094 182.386719 24.5 183.515625 " clip-rule="nonzero"/></clipPath><clipPath id="b58466e34f"><path d="M 314 181 L 361 181 L 361 229 L 314 229 Z M 314 181 " clip-rule="nonzero"/></clipPath><clipPath id="f7e997d528"><path d="M 363.25 187.761719 L 319.804688 231.210938 L 310.796875 222.203125 L 354.242188 178.753906 Z M 363.25 187.761719 " clip-rule="nonzero"/></clipPath><clipPath id="69fdff636a"><path d="M 358.996094 192.015625 L 324.386719 226.628906 C 323.257812 227.753906 321.726562 228.390625 320.132812 228.390625 C 318.539062 228.390625 317.007812 227.753906 315.878906 226.628906 C 314.75 225.5 314.117188 223.96875 314.117188 222.375 C 314.117188 220.777344 314.75 219.246094 315.878906 218.121094 L 350.488281 183.507812 C 351.617188 182.378906 353.148438 181.746094 354.742188 181.746094 C 356.339844 181.746094 357.871094 182.378906 358.996094 183.507812 C 360.125 184.636719 360.757812 186.167969 360.757812 187.761719 C 360.757812 189.359375 360.125 190.890625 358.996094 192.015625 " clip-rule="nonzero"/></clipPath><clipPath id="50036ebe9f"><path d="M 314 146 L 361 146 L 361 194 L 314 194 Z M 314 146 " clip-rule="nonzero"/></clipPath><clipPath id="a48502b6fa"><path d="M 354.75 195.730469 L 311.300781 152.28125 L 320.308594 143.273438 L 363.757812 186.722656 Z M 354.75 195.730469 " clip-rule="nonzero"/></clipPath><clipPath id="369fab19ab"><path d="M 350.496094 191.476562 L 315.886719 156.867188 C 314.757812 155.738281 314.121094 154.207031 314.121094 152.613281 C 314.121094 151.015625 314.757812 149.484375 315.886719 148.359375 C 317.011719 147.230469 318.542969 146.597656 320.140625 146.597656 C 321.734375 146.597656 323.265625 147.230469 324.394531 148.359375 L 359.003906 182.96875 C 360.132812 184.097656 360.765625 185.625 360.765625 187.222656 C 360.765625 188.816406 360.132812 190.347656 359.003906 191.476562 C 357.875 192.605469 356.34375 193.238281 354.75 193.238281 C 353.152344 193.238281 351.625 192.605469 350.496094 191.476562 " clip-rule="nonzero"/></clipPath><clipPath id="b137d3cc49"><path d="M 188 153.082031 L 199.617188 153.082031 L 199.617188 234.734375 L 188 234.734375 Z M 188 153.082031 " clip-rule="nonzero"/></clipPath><clipPath id="23cb02ae6a"><path d="M 199.617188 158.855469 L 199.617188 228.355469 C 199.617188 231.546875 197.03125 234.132812 193.839844 234.132812 C 190.652344 234.132812 188.066406 231.546875 188.066406 228.355469 L 188.066406 158.855469 C 188.066406 155.667969 190.652344 153.082031 193.839844 153.082031 C 197.03125 153.082031 199.617188 155.667969 199.617188 158.855469 " clip-rule="nonzero"/></clipPath><clipPath id="fb2136b220"><path d="M 89 133.777344 L 100.992188 133.777344 L 100.992188 234.324219 L 89 234.324219 Z M 89 133.777344 " clip-rule="nonzero"/></clipPath><clipPath id="558df18549"><path d="M 100.992188 139.550781 L 100.992188 228.359375 C 100.992188 231.550781 98.40625 234.132812 95.214844 234.132812 C 92.027344 234.132812 89.441406 231.550781 89.441406 228.359375 L 89.441406 139.550781 C 89.441406 136.363281 92.027344 133.777344 95.214844 133.777344 C 98.40625 133.777344 100.992188 136.363281 100.992188 139.550781 " clip-rule="nonzero"/></clipPath><clipPath id="944fb2cf34"><path d="M 89 133 L 148 133 L 148 192 L 89 192 Z M 89 133 " clip-rule="nonzero"/></clipPath><clipPath id="4a8a8d99ea"><path d="M 95.773438 131.054688 L 150.167969 185.453125 L 141.582031 194.039062 L 87.183594 139.644531 Z M 95.773438 131.054688 " clip-rule="nonzero"/></clipPath><clipPath id="3c993204c7"><path d="M 99.855469 135.136719 L 146.078125 181.359375 C 148.332031 183.613281 148.332031 187.269531 146.078125 189.527344 C 143.820312 191.78125 140.164062 191.78125 137.910156 189.527344 L 91.6875 143.304688 C 89.433594 141.050781 89.433594 137.394531 91.6875 135.136719 C 93.945312 132.882812 97.601562 132.882812 99.855469 135.136719 " clip-rule="nonzero"/></clipPath><clipPath id="e0ab175899"><path d="M 126 127 L 216 127 L 216 250 L 126 250 Z M 126 127 " clip-rule="nonzero"/></clipPath><clipPath id="c6b8a1661c"><path d="M 123.78125 244.679688 L 208.957031 124.734375 L 218.859375 131.765625 L 133.683594 251.710938 Z M 123.78125 244.679688 " clip-rule="nonzero"/></clipPath><clipPath id="aaa333b6df"><path d="M 127.125 239.96875 L 205.285156 129.902344 C 207.132812 127.304688 210.738281 126.691406 213.339844 128.539062 C 215.9375 130.386719 216.550781 133.988281 214.703125 136.589844 L 136.542969 246.65625 C 134.695312 249.257812 131.089844 249.867188 128.488281 248.023438 C 125.890625 246.175781 125.277344 242.570312 127.125 239.96875 " clip-rule="nonzero"/></clipPath><clipPath id="31e246ba4e"><path d="M 100 125 L 192 125 L 192 250 L 100 250 Z M 100 125 " clip-rule="nonzero"/></clipPath><clipPath id="90cddb2f3c"><path d="M 98.46875 244.675781 L 184.820312 123.082031 L 194.722656 130.113281 L 108.375 251.707031 Z M 98.46875 244.675781 " clip-rule="nonzero"/></clipPath><clipPath id="741b9938ed"><path d="M 101.8125 239.964844 L 181.085938 128.335938 C 182.933594 125.734375 186.539062 125.125 189.136719 126.96875 C 191.738281 128.816406 192.347656 132.421875 190.503906 135.023438 L 111.230469 246.652344 C 109.382812 249.253906 105.777344 249.863281 103.179688 248.019531 C 100.578125 246.171875 99.96875 242.566406 101.8125 239.964844 " clip-rule="nonzero"/></clipPath><clipPath id="4a6429b7fd"><path d="M 226.230469 133.28125 L 237.699219 133.28125 L 237.699219 167 L 226.230469 167 Z M 226.230469 133.28125 " clip-rule="nonzero"/></clipPath><clipPath id="544c1355f6"><path d="M 237.699219 139 L 237.699219 161.074219 C 237.699219 164.234375 235.140625 166.796875 231.980469 166.796875 C 228.820312 166.796875 226.257812 164.234375 226.257812 161.074219 L 226.257812 139 C 226.257812 135.839844 228.820312 133.28125 231.980469 133.28125 C 235.140625 133.28125 237.699219 135.839844 237.699219 139 " clip-rule="nonzero"/></clipPath><clipPath id="64d5e327b6"><path d="M 226.402344 199.667969 L 237.875 199.667969 L 237.875 228.683594 L 226.402344 228.683594 Z M 226.402344 199.667969 " clip-rule="nonzero"/></clipPath><clipPath id="066ced3ce4"><path d="M 237.875 205.386719 L 237.875 222.511719 C 237.875 225.671875 235.3125 228.230469 232.152344 228.230469 C 228.992188 228.230469 226.429688 225.671875 226.429688 222.511719 L 226.429688 205.386719 C 226.429688 202.226562 228.992188 199.667969 232.152344 199.667969 C 235.3125 199.667969 237.875 202.226562 237.875 205.386719 " clip-rule="nonzero"/></clipPath><clipPath id="2105114c73"><path d="M 226 218 L 243 218 L 243 237 L 226 237 Z M 226 218 " clip-rule="nonzero"/></clipPath><clipPath id="a23ec594dc"><path d="M 235.535156 238.957031 L 223.992188 222.324219 L 233.417969 215.785156 L 244.960938 232.414062 Z M 235.535156 238.957031 " clip-rule="nonzero"/></clipPath><clipPath id="680ad69fe3"><path d="M 232.347656 234.363281 L 227.5625 227.46875 C 226.71875 226.25 226.390625 224.746094 226.652344 223.289062 C 226.917969 221.828125 227.75 220.535156 228.96875 219.6875 C 230.1875 218.84375 231.691406 218.515625 233.148438 218.78125 C 234.609375 219.042969 235.902344 219.875 236.746094 221.09375 L 241.535156 227.988281 C 242.378906 229.207031 242.707031 230.710938 242.441406 232.171875 C 242.179688 233.628906 241.347656 234.925781 240.128906 235.769531 C 238.910156 236.613281 237.40625 236.941406 235.945312 236.679688 C 234.488281 236.414062 233.191406 235.582031 232.347656 234.363281 " clip-rule="nonzero"/></clipPath><clipPath id="db0f3cde2b"><path d="M 227 125 L 243 125 L 243 143 L 227 143 Z M 227 125 " clip-rule="nonzero"/></clipPath><clipPath id="30373d73b5"><path d="M 225.074219 138.738281 L 235.796875 123.179688 L 245.242188 129.691406 L 234.519531 145.25 Z M 225.074219 138.738281 " clip-rule="nonzero"/></clipPath><clipPath id="191ecfd6d2"><path d="M 228.246094 134.136719 L 232.316406 128.230469 C 233.15625 127.011719 234.449219 126.171875 235.90625 125.90625 C 237.363281 125.636719 238.871094 125.960938 240.089844 126.800781 C 241.3125 127.640625 242.148438 128.933594 242.414062 130.390625 C 242.683594 131.851562 242.363281 133.355469 241.519531 134.574219 L 237.449219 140.480469 C 236.609375 141.699219 235.316406 142.539062 233.859375 142.804688 C 232.402344 143.074219 230.894531 142.75 229.675781 141.910156 C 228.453125 141.070312 227.617188 139.777344 227.351562 138.320312 C 227.082031 136.859375 227.402344 135.355469 228.246094 134.136719 " clip-rule="nonzero"/></clipPath><clipPath id="0084004710"><path d="M 226 155 L 285 155 L 285 206 L 226 206 Z M 226 155 " clip-rule="nonzero"/></clipPath><clipPath id="11414cb5c1"><path d="M 232.179688 153.46875 L 286.886719 198.496094 L 278.738281 208.394531 L 224.03125 163.367188 Z M 232.179688 153.46875 " clip-rule="nonzero"/></clipPath><clipPath id="66d7c40971"><path d="M 236.917969 157.371094 L 281.902344 194.390625 C 284.519531 196.546875 284.894531 200.417969 282.738281 203.035156 C 280.585938 205.652344 276.714844 206.027344 274.097656 203.875 L 229.113281 166.851562 C 226.496094 164.699219 226.121094 160.828125 228.277344 158.210938 C 230.429688 155.589844 234.300781 155.214844 236.917969 157.371094 " clip-rule="nonzero"/></clipPath><clipPath id="970bcd05cf"><path d="M 273.566406 133.28125 L 285.039062 133.28125 L 285.039062 162 L 273.566406 162 Z M 273.566406 133.28125 " clip-rule="nonzero"/></clipPath><clipPath id="cb33e411d2"><path d="M 285.039062 139.003906 L 285.039062 156.128906 C 285.039062 159.285156 282.476562 161.847656 279.316406 161.847656 C 276.160156 161.847656 273.597656 159.285156 273.597656 156.128906 L 273.597656 139.003906 C 273.597656 135.84375 276.160156 133.28125 279.316406 133.28125 C 282.476562 133.28125 285.039062 135.84375 285.039062 139.003906 " clip-rule="nonzero"/></clipPath><clipPath id="2ebd7a045c"><path d="M 273.570312 194.710938 L 285.042969 194.710938 L 285.042969 228.453125 L 273.570312 228.453125 Z M 273.570312 194.710938 " clip-rule="nonzero"/></clipPath><clipPath id="cee7742bab"><path d="M 285.042969 200.433594 L 285.042969 222.507812 C 285.042969 225.667969 282.480469 228.230469 279.320312 228.230469 C 276.160156 228.230469 273.601562 225.667969 273.601562 222.507812 L 273.601562 200.433594 C 273.601562 197.273438 276.160156 194.710938 279.320312 194.710938 C 282.480469 194.710938 285.042969 197.273438 285.042969 200.433594 " clip-rule="nonzero"/></clipPath><clipPath id="c9d6f7ca0a"><path d="M 269 218 L 286 218 L 286 237 L 269 237 Z M 269 218 " clip-rule="nonzero"/></clipPath><clipPath id="2c328d8038"><path d="M 287.328125 222.851562 L 276.222656 238.964844 L 266.777344 232.453125 L 277.882812 216.339844 Z M 287.328125 222.851562 " clip-rule="nonzero"/></clipPath><clipPath id="5f6eb81329"><path d="M 284.15625 227.453125 L 279.398438 234.359375 C 278.554688 235.578125 277.265625 236.414062 275.804688 236.683594 C 274.347656 236.953125 272.84375 236.628906 271.621094 235.789062 C 270.402344 234.945312 269.566406 233.65625 269.296875 232.195312 C 269.027344 230.738281 269.351562 229.234375 270.191406 228.011719 L 274.949219 221.109375 C 275.792969 219.886719 277.085938 219.050781 278.542969 218.785156 C 280 218.515625 281.503906 218.835938 282.726562 219.679688 C 283.945312 220.519531 284.785156 221.8125 285.050781 223.269531 C 285.320312 224.726562 284.996094 226.234375 284.15625 227.453125 " clip-rule="nonzero"/></clipPath><clipPath id="052d7ed171"><path d="M 232.792969 226.082031 L 279 226.082031 L 279 238 L 232.792969 238 Z M 232.792969 226.082031 " clip-rule="nonzero"/></clipPath><clipPath id="0192e52798"><path d="M 238.746094 226.082031 L 273 226.082031 C 274.578125 226.082031 276.09375 226.707031 277.210938 227.824219 C 278.328125 228.941406 278.953125 230.457031 278.953125 232.035156 C 278.953125 233.613281 278.328125 235.128906 277.210938 236.246094 C 276.09375 237.363281 274.578125 237.988281 273 237.988281 L 238.746094 237.988281 C 237.167969 237.988281 235.65625 237.363281 234.539062 236.246094 C 233.421875 235.128906 232.792969 233.613281 232.792969 232.035156 C 232.792969 230.457031 233.421875 228.941406 234.539062 227.824219 C 235.65625 226.707031 237.167969 226.082031 238.746094 226.082031 " clip-rule="nonzero"/></clipPath><clipPath id="c01a99f60c"><path d="M 233 124.363281 L 278.925781 124.363281 L 278.925781 136.507812 L 233 136.507812 Z M 233 124.363281 " clip-rule="nonzero"/></clipPath><clipPath id="0db756709a"><path d="M 272.972656 136.507812 L 238.71875 136.507812 C 237.140625 136.507812 235.625 135.882812 234.507812 134.765625 C 233.394531 133.648438 232.765625 132.132812 232.765625 130.554688 C 232.765625 128.976562 233.394531 127.460938 234.507812 126.34375 C 235.625 125.230469 237.140625 124.601562 238.71875 124.601562 L 272.972656 124.601562 C 274.550781 124.601562 276.066406 125.230469 277.183594 126.34375 C 278.300781 127.460938 278.925781 128.976562 278.925781 130.554688 C 278.925781 132.132812 278.300781 133.648438 277.183594 134.765625 C 276.066406 135.882812 274.550781 136.507812 272.972656 136.507812 " clip-rule="nonzero"/></clipPath><clipPath id="3257cd26ac"><path d="M 269 125 L 285 125 L 285 143 L 269 143 Z M 269 125 " clip-rule="nonzero"/></clipPath><clipPath id="a2d4154e03"><path d="M 276.179688 123.636719 L 286.953125 139.160156 L 277.527344 145.699219 L 266.753906 130.179688 Z M 276.179688 123.636719 " clip-rule="nonzero"/></clipPath><clipPath id="e4e407310d"><path d="M 279.367188 128.230469 L 283.457031 134.121094 C 284.300781 135.339844 284.628906 136.84375 284.363281 138.300781 C 284.101562 139.761719 283.269531 141.054688 282.050781 141.902344 C 280.832031 142.746094 279.328125 143.074219 277.871094 142.808594 C 276.410156 142.546875 275.117188 141.714844 274.269531 140.496094 L 270.183594 134.605469 C 269.335938 133.386719 269.011719 131.882812 269.273438 130.421875 C 269.535156 128.964844 270.371094 127.671875 271.585938 126.824219 C 272.804688 125.980469 274.308594 125.652344 275.769531 125.917969 C 277.226562 126.179688 278.523438 127.011719 279.367188 128.230469 " clip-rule="nonzero"/></clipPath><clipPath id="98631dffff"><path d="M 249.898438 125.476562 L 261.367188 125.476562 L 261.367188 154 L 249.898438 154 Z M 249.898438 125.476562 " clip-rule="nonzero"/></clipPath><clipPath id="6237592e89"><path d="M 261.367188 131.199219 L 261.367188 148.324219 C 261.367188 151.480469 258.808594 154.042969 255.648438 154.042969 C 252.488281 154.042969 249.925781 151.480469 249.925781 148.324219 L 249.925781 131.199219 C 249.925781 128.039062 252.488281 125.476562 255.648438 125.476562 C 258.808594 125.476562 261.367188 128.039062 261.367188 131.199219 " clip-rule="nonzero"/></clipPath></defs><rect x="-37.5" width="450" fill="#ffffff" y="-37.499999" height="449.999989" fill-opacity="1"/><rect x="-37.5" width="450" fill="#ffffff" y="-37.499999" height="449.999989" fill-opacity="1"/><rect x="-37.5" width="450" fill="#ffffff" y="-37.499999" height="449.999989" fill-opacity="1"/><g clip-path="url(#27ec9ae0ce)"><g clip-path="url(#0ab77fa268)"><g clip-path="url(#22b18fa6aa)"><path fill="#00061e" d="M 11.742188 187.226562 L 54.660156 144.308594 L 63.140625 152.789062 L 20.21875 195.707031 Z M 11.742188 187.226562 " fill-opacity="1" fill-rule="nonzero"/></g></g></g><g clip-path="url(#4f7595847e)"><g clip-path="url(#379df5847e)"><g clip-path="url(#765903f6df)"><path fill="#00061e" d="M 20.246094 179.261719 L 63.164062 222.179688 L 54.683594 230.65625 L 11.765625 187.738281 Z M 20.246094 179.261719 " fill-opacity="1" fill-rule="nonzero"/></g></g></g><g clip-path="url(#b58466e34f)"><g clip-path="url(#f7e997d528)"><g clip-path="url(#69fdff636a)"><path fill="#00061e" d="M 363.25 187.761719 L 320.332031 230.683594 L 311.855469 222.203125 L 354.773438 179.285156 Z M 363.25 187.761719 " fill-opacity="1" fill-rule="nonzero"/></g></g></g><g clip-path="url(#50036ebe9f)"><g clip-path="url(#a48502b6fa)"><g clip-path="url(#369fab19ab)"><path fill="#00061e" d="M 354.75 195.730469 L 311.832031 152.8125 L 320.308594 144.332031 L 363.226562 187.253906 Z M 354.75 195.730469 " fill-opacity="1" fill-rule="nonzero"/></g></g></g><g clip-path="url(#b137d3cc49)"><g clip-path="url(#23cb02ae6a)"><path fill="#00061e" d="M 199.617188 153.082031 L 199.617188 234.058594 L 188.144531 234.058594 L 188.144531 153.082031 Z M 199.617188 153.082031 " fill-opacity="1" fill-rule="nonzero"/></g></g><g clip-path="url(#fb2136b220)"><g clip-path="url(#558df18549)"><path fill="#00061e" d="M 100.992188 133.777344 L 100.992188 234.324219 L 89.519531 234.324219 L 89.519531 133.777344 Z M 100.992188 133.777344 " fill-opacity="1" fill-rule="nonzero"/></g></g><g clip-path="url(#944fb2cf34)"><g clip-path="url(#4a8a8d99ea)"><g clip-path="url(#3c993204c7)"><path fill="#00061e" d="M 95.773438 131.054688 L 150.167969 185.453125 L 142.058594 193.5625 L 87.660156 139.167969 Z M 95.773438 131.054688 " fill-opacity="1" fill-rule="nonzero"/></g></g></g><g clip-path="url(#e0ab175899)"><g clip-path="url(#c6b8a1661c)"><g clip-path="url(#aaa333b6df)"><path fill="#00061e" d="M 123.78125 244.679688 L 208.566406 125.285156 L 217.921875 131.925781 L 133.136719 251.320312 Z M 123.78125 244.679688 " fill-opacity="1" fill-rule="nonzero"/></g></g></g><g clip-path="url(#31e246ba4e)"><g clip-path="url(#90cddb2f3c)"><g clip-path="url(#741b9938ed)"><path fill="#00061e" d="M 98.46875 244.675781 L 184.429688 123.628906 L 193.78125 130.273438 L 107.824219 251.316406 Z M 98.46875 244.675781 " fill-opacity="1" fill-rule="nonzero"/></g></g></g><g clip-path="url(#4a6429b7fd)"><g clip-path="url(#544c1355f6)"><path fill="#00061e" d="M 237.699219 133.28125 L 237.699219 167.019531 L 226.230469 167.019531 L 226.230469 133.28125 Z M 237.699219 133.28125 " fill-opacity="1" fill-rule="nonzero"/></g></g><g clip-path="url(#64d5e327b6)"><g clip-path="url(#066ced3ce4)"><path fill="#00061e" d="M 237.875 199.667969 L 237.875 228.007812 L 226.402344 228.007812 L 226.402344 199.667969 Z M 237.875 199.667969 " fill-opacity="1" fill-rule="nonzero"/></g></g><g clip-path="url(#2105114c73)"><g clip-path="url(#a23ec594dc)"><g clip-path="url(#680ad69fe3)"><path fill="#00061e" d="M 235.535156 238.957031 L 224.378906 222.878906 L 233.800781 216.339844 L 244.960938 232.414062 Z M 235.535156 238.957031 " fill-opacity="1" fill-rule="nonzero"/></g></g></g><g clip-path="url(#db0f3cde2b)"><g clip-path="url(#30373d73b5)"><g clip-path="url(#191ecfd6d2)"><path fill="#00061e" d="M 225.074219 138.738281 L 235.414062 123.734375 L 244.859375 130.246094 L 234.519531 145.25 Z M 225.074219 138.738281 " fill-opacity="1" fill-rule="nonzero"/></g></g></g><g clip-path="url(#0084004710)"><g clip-path="url(#11414cb5c1)"><g clip-path="url(#66d7c40971)"><path fill="#00061e" d="M 232.179688 153.46875 L 286.886719 198.496094 L 279.167969 207.875 L 224.457031 162.847656 Z M 232.179688 153.46875 " fill-opacity="1" fill-rule="nonzero"/></g></g></g><g clip-path="url(#970bcd05cf)"><g clip-path="url(#cb33e411d2)"><path fill="#00061e" d="M 285.039062 133.28125 L 285.039062 161.625 L 273.566406 161.625 L 273.566406 133.28125 Z M 285.039062 133.28125 " fill-opacity="1" fill-rule="nonzero"/></g></g><g clip-path="url(#2ebd7a045c)"><g clip-path="url(#cee7742bab)"><path fill="#00061e" d="M 285.042969 194.710938 L 285.042969 228.453125 L 273.570312 228.453125 L 273.570312 194.710938 Z M 285.042969 194.710938 " fill-opacity="1" fill-rule="nonzero"/></g></g><g clip-path="url(#c9d6f7ca0a)"><g clip-path="url(#2c328d8038)"><g clip-path="url(#5f6eb81329)"><path fill="#00061e" d="M 287.328125 222.851562 L 276.222656 238.964844 L 266.777344 232.453125 L 277.882812 216.339844 Z M 287.328125 222.851562 " fill-opacity="1" fill-rule="nonzero"/></g></g></g><g clip-path="url(#052d7ed171)"><g clip-path="url(#0192e52798)"><path fill="#00061e" d="M 232.792969 226.082031 L 278.683594 226.082031 L 278.683594 238.226562 L 232.792969 238.226562 Z M 232.792969 226.082031 " fill-opacity="1" fill-rule="nonzero"/></g></g><g clip-path="url(#c01a99f60c)"><g clip-path="url(#0db756709a)"><path fill="#00061e" d="M 278.925781 136.507812 L 233.039062 136.507812 L 233.039062 124.363281 L 278.925781 124.363281 Z M 278.925781 136.507812 " fill-opacity="1" fill-rule="nonzero"/></g></g><g clip-path="url(#3257cd26ac)"><g clip-path="url(#a2d4154e03)"><g clip-path="url(#e4e407310d)"><path fill="#00061e" d="M 276.179688 123.636719 L 286.566406 138.605469 L 277.144531 145.148438 L 266.753906 130.179688 Z M 276.179688 123.636719 " fill-opacity="1" fill-rule="nonzero"/></g></g></g><g clip-path="url(#98631dffff)"><g clip-path="url(#6237592e89)"><path fill="#00061e" d="M 261.367188 125.476562 L 261.367188 153.820312 L 249.898438 153.820312 L 249.898438 125.476562 Z M 261.367188 125.476562 " fill-opacity="1" fill-rule="nonzero"/></g></g></svg>