<svg xmlns="http://www.w3.org/2000/svg" xmlns:xlink="http://www.w3.org/1999/xlink" width="250" zoomAndPan="magnify" viewBox="0 0 187.5 187.499992" height="250" preserveAspectRatio="xMidYMid meet" version="1.0"><defs><clipPath id="5852d9813f"><path d="M 0 0 L 187 0 L 187 187 L 0 187 Z M 0 0 " clip-rule="nonzero"/></clipPath></defs><g clip-path="url(#5852d9813f)"><path fill="#29a71a" d="M 187.515625 93.757812 C 187.515625 95.292969 187.480469 96.824219 187.402344 98.359375 C 187.328125 99.890625 187.214844 101.421875 187.066406 102.949219 C 186.914062 104.476562 186.726562 105.996094 186.5 107.515625 C 186.277344 109.03125 186.015625 110.542969 185.714844 112.050781 C 185.414062 113.554688 185.078125 115.050781 184.707031 116.539062 C 184.332031 118.027344 183.925781 119.507812 183.480469 120.976562 C 183.035156 122.441406 182.550781 123.898438 182.035156 125.34375 C 181.519531 126.789062 180.964844 128.21875 180.378906 129.636719 C 179.792969 131.054688 179.171875 132.457031 178.515625 133.84375 C 177.859375 135.230469 177.167969 136.601562 176.445312 137.957031 C 175.722656 139.308594 174.964844 140.644531 174.175781 141.960938 C 173.386719 143.277344 172.566406 144.570312 171.714844 145.847656 C 170.863281 147.125 169.980469 148.378906 169.066406 149.609375 C 168.152344 150.84375 167.207031 152.050781 166.234375 153.238281 C 165.261719 154.425781 164.257812 155.585938 163.226562 156.722656 C 162.199219 157.859375 161.140625 158.96875 160.054688 160.054688 C 158.96875 161.140625 157.859375 162.199219 156.722656 163.226562 C 155.585938 164.257812 154.425781 165.261719 153.238281 166.234375 C 152.050781 167.207031 150.84375 168.152344 149.609375 169.066406 C 148.378906 169.980469 147.125 170.863281 145.847656 171.714844 C 144.570312 172.566406 143.277344 173.386719 141.960938 174.175781 C 140.644531 174.964844 139.308594 175.722656 137.957031 176.445312 C 136.601562 177.167969 135.230469 177.859375 133.84375 178.515625 C 132.457031 179.171875 131.054688 179.792969 129.636719 180.378906 C 128.21875 180.964844 126.789062 181.519531 125.34375 182.035156 C 123.898438 182.550781 122.441406 183.035156 120.976562 183.480469 C 119.507812 183.925781 118.027344 184.332031 116.539062 184.707031 C 115.050781 185.078125 113.554688 185.414062 112.050781 185.714844 C 110.542969 186.015625 109.035156 186.277344 107.515625 186.5 C 105.996094 186.726562 104.476562 186.914062 102.949219 187.066406 C 101.421875 187.214844 99.890625 187.328125 98.359375 187.402344 C 96.824219 187.480469 95.292969 187.515625 93.757812 187.515625 C 92.222656 187.515625 90.691406 187.480469 89.15625 187.402344 C 87.625 187.328125 86.09375 187.214844 84.566406 187.066406 C 83.042969 186.914062 81.519531 186.726562 80 186.5 C 78.484375 186.277344 76.972656 186.015625 75.46875 185.714844 C 73.960938 185.414062 72.464844 185.078125 70.976562 184.707031 C 69.488281 184.332031 68.011719 183.925781 66.542969 183.480469 C 65.074219 183.035156 63.617188 182.550781 62.171875 182.035156 C 60.726562 181.519531 59.296875 180.964844 57.878906 180.378906 C 56.460938 179.792969 55.058594 179.171875 53.671875 178.515625 C 52.285156 177.859375 50.914062 177.167969 49.5625 176.445312 C 48.207031 175.722656 46.871094 174.964844 45.558594 174.175781 C 44.242188 173.386719 42.945312 172.566406 41.667969 171.714844 C 40.394531 170.863281 39.140625 169.980469 37.90625 169.066406 C 36.675781 168.152344 35.464844 167.207031 34.277344 166.234375 C 33.09375 165.261719 31.929688 164.257812 30.792969 163.226562 C 29.65625 162.199219 28.546875 161.140625 27.460938 160.054688 C 26.375 158.96875 25.320312 157.859375 24.289062 156.722656 C 23.257812 155.585938 22.253906 154.425781 21.28125 153.238281 C 20.308594 152.050781 19.363281 150.84375 18.449219 149.609375 C 17.535156 148.378906 16.652344 147.125 15.800781 145.847656 C 14.949219 144.570312 14.128906 143.277344 13.339844 141.960938 C 12.550781 140.644531 11.792969 139.308594 11.070312 137.957031 C 10.347656 136.601562 9.65625 135.230469 9 133.84375 C 8.347656 132.457031 7.722656 131.054688 7.136719 129.636719 C 6.550781 128.21875 5.996094 126.789062 5.480469 125.34375 C 4.964844 123.898438 4.484375 122.441406 4.039062 120.976562 C 3.589844 119.507812 3.183594 118.027344 2.808594 116.539062 C 2.4375 115.050781 2.101562 113.554688 1.800781 112.050781 C 1.503906 110.542969 1.238281 109.03125 1.015625 107.515625 C 0.789062 105.996094 0.601562 104.476562 0.453125 102.949219 C 0.300781 101.421875 0.1875 99.890625 0.113281 98.359375 C 0.0390625 96.824219 0 95.292969 0 93.757812 C 0 92.222656 0.0390625 90.691406 0.113281 89.15625 C 0.1875 87.625 0.300781 86.09375 0.453125 84.566406 C 0.601562 83.042969 0.789062 81.519531 1.015625 80 C 1.238281 78.484375 1.503906 76.972656 1.800781 75.46875 C 2.101562 73.960938 2.4375 72.464844 2.808594 70.976562 C 3.183594 69.488281 3.589844 68.011719 4.039062 66.542969 C 4.484375 65.074219 4.964844 63.617188 5.480469 62.171875 C 5.996094 60.726562 6.550781 59.296875 7.136719 57.878906 C 7.722656 56.460938 8.347656 55.058594 9 53.671875 C 9.65625 52.285156 10.347656 50.914062 11.070312 49.5625 C 11.792969 48.207031 12.550781 46.871094 13.339844 45.558594 C 14.128906 44.242188 14.949219 42.945312 15.800781 41.667969 C 16.652344 40.394531 17.535156 39.140625 18.449219 37.90625 C 19.363281 36.675781 20.308594 35.464844 21.28125 34.277344 C 22.253906 33.09375 23.257812 31.929688 24.289062 30.792969 C 25.320312 29.65625 26.375 28.546875 27.460938 27.460938 C 28.546875 26.375 29.65625 25.320312 30.792969 24.289062 C 31.929688 23.257812 33.09375 22.253906 34.277344 21.28125 C 35.464844 20.308594 36.675781 19.363281 37.90625 18.449219 C 39.140625 17.535156 40.394531 16.652344 41.667969 15.800781 C 42.945312 14.949219 44.242188 14.128906 45.558594 13.339844 C 46.871094 12.550781 48.207031 11.792969 49.5625 11.070312 C 50.914062 10.347656 52.285156 9.65625 53.671875 9 C 55.058594 8.347656 56.460938 7.722656 57.878906 7.136719 C 59.296875 6.550781 60.726562 5.996094 62.171875 5.480469 C 63.617188 4.964844 65.074219 4.484375 66.542969 4.039062 C 68.011719 3.589844 69.488281 3.183594 70.976562 2.808594 C 72.464844 2.4375 73.960938 2.101562 75.46875 1.800781 C 76.972656 1.503906 78.484375 1.238281 80 1.015625 C 81.519531 0.789062 83.042969 0.601562 84.566406 0.453125 C 86.09375 0.300781 87.625 0.1875 89.15625 0.113281 C 90.691406 0.0390625 92.222656 0 93.757812 0 C 95.292969 0 96.824219 0.0390625 98.359375 0.113281 C 99.890625 0.1875 101.421875 0.300781 102.949219 0.453125 C 104.476562 0.601562 105.996094 0.789062 107.515625 1.015625 C 109.035156 1.238281 110.542969 1.503906 112.050781 1.800781 C 113.554688 2.101562 115.050781 2.4375 116.539062 2.808594 C 118.027344 3.183594 119.507812 3.589844 120.976562 4.039062 C 122.441406 4.484375 123.898438 4.964844 125.34375 5.480469 C 126.789062 5.996094 128.21875 6.550781 129.636719 7.136719 C 131.054688 7.722656 132.457031 8.347656 133.84375 9 C 135.230469 9.65625 136.601562 10.347656 137.957031 11.070312 C 139.308594 11.792969 140.644531 12.550781 141.960938 13.339844 C 143.277344 14.128906 144.570312 14.949219 145.847656 15.800781 C 147.125 16.652344 148.378906 17.535156 149.609375 18.449219 C 150.84375 19.363281 152.050781 20.308594 153.238281 21.28125 C 154.425781 22.253906 155.585938 23.257812 156.722656 24.289062 C 157.859375 25.320312 158.96875 26.375 160.054688 27.460938 C 161.140625 28.546875 162.199219 29.65625 163.226562 30.792969 C 164.257812 31.929688 165.261719 33.09375 166.234375 34.277344 C 167.207031 35.464844 168.152344 36.675781 169.066406 37.90625 C 169.980469 39.140625 170.863281 40.394531 171.714844 41.667969 C 172.566406 42.945312 173.386719 44.242188 174.175781 45.558594 C 174.964844 46.871094 175.722656 48.207031 176.445312 49.5625 C 177.167969 50.914062 177.859375 52.285156 178.515625 53.671875 C 179.171875 55.058594 179.792969 56.460938 180.378906 57.878906 C 180.964844 59.296875 181.519531 60.726562 182.035156 62.171875 C 182.550781 63.617188 183.035156 65.074219 183.480469 66.542969 C 183.925781 68.011719 184.332031 69.488281 184.707031 70.976562 C 185.078125 72.464844 185.414062 73.960938 185.714844 75.46875 C 186.015625 76.972656 186.277344 78.484375 186.5 80 C 186.726562 81.519531 186.914062 83.042969 187.066406 84.566406 C 187.214844 86.09375 187.328125 87.625 187.402344 89.15625 C 187.480469 90.691406 187.515625 92.222656 187.515625 93.757812 Z M 187.515625 93.757812 " fill-opacity="1" fill-rule="nonzero"/></g><path fill="#29a71a" d="M 78.367188 66.378906 C 84.121094 65.089844 84.523438 68.359375 86.148438 72.300781 C 86.863281 74.03125 87.519531 75.707031 88.265625 77.4375 C 89.242188 79.695312 88.667969 80.871094 87.421875 82.550781 C 84.285156 86.789062 83.09375 85.605469 87.167969 91.03125 C 90.640625 95.671875 97.648438 101.867188 103.199219 103.222656 C 104.480469 103.535156 104.914062 103 105.503906 102.371094 C 106.746094 101.039062 109.691406 97.007812 110.40625 96.746094 C 112.015625 96.171875 118.910156 99.964844 120.488281 100.726562 C 122.523438 101.722656 123.953125 101.753906 123.894531 104.226562 C 123.753906 110.273438 119.265625 114.394531 113.527344 115.042969 C 105.972656 115.898438 93.832031 110.234375 88.199219 105.398438 C 82.363281 100.390625 75.648438 92.667969 72.726562 85.703125 C 70.371094 80.089844 70.460938 74.285156 74.292969 69.402344 C 75.425781 67.949219 76.535156 66.765625 78.367188 66.355469 Z M 57.671875 130.734375 C 60.394531 130.296875 63.976562 129.132812 66.71875 128.402344 C 71.640625 127.085938 73.167969 126.019531 75.507812 127.40625 C 104.027344 144.359375 139.992188 124.007812 140.707031 91.179688 C 141.011719 77.152344 134.445312 65.699219 127.613281 59.3125 C 124.027344 55.953125 119.789062 52.582031 113.960938 50.289062 C 74.457031 34.824219 38.921875 77.667969 61.175781 113.566406 C 62.292969 115.375 61.875 115.308594 61.226562 117.664062 C 60.265625 121.175781 58.210938 127.84375 57.679688 130.722656 Z M 57.671875 130.734375 " fill-opacity="1" fill-rule="evenodd"/><path fill="#ffffff" d="M 57.679688 130.734375 C 58.210938 127.851562 60.257812 121.175781 61.226562 117.671875 C 61.875 115.324219 62.292969 115.390625 61.175781 113.574219 C 38.929688 77.675781 74.457031 34.832031 113.960938 50.296875 C 119.796875 52.582031 124.027344 55.960938 127.613281 59.320312 C 134.445312 65.707031 141.011719 77.160156 140.707031 91.1875 C 139.992188 124.019531 104.027344 144.367188 75.507812 127.417969 C 73.167969 126.027344 71.652344 127.097656 66.71875 128.410156 C 63.976562 129.140625 60.394531 130.304688 57.671875 130.742188 Z M 45.226562 143.039062 C 48.320312 142.613281 53.023438 141.101562 56.183594 140.273438 C 59.945312 139.277344 63.539062 138.335938 67.234375 137.347656 C 73.925781 135.558594 71.675781 135.714844 77.496094 138.21875 C 97.863281 146.988281 118.082031 140.984375 132.414062 128.722656 C 134.269531 127.128906 135.988281 125.429688 137.5625 123.402344 C 144.351562 114.699219 148.671875 105.464844 149.402344 93.421875 C 150.105469 81.9375 146.699219 69.582031 140.371094 60.804688 L 135.757812 54.953125 C 135.132812 54.289062 134.542969 53.984375 133.933594 53.292969 C 132.0625 51.160156 129.074219 48.828125 126.496094 47.082031 C 98.066406 27.820312 57.875 41.425781 47.671875 75.671875 C 45.355469 83.429688 44.898438 92.132812 46.515625 100.285156 C 47.308594 104.273438 48.378906 107.492188 49.839844 110.949219 C 52.308594 116.785156 53.023438 114.25 51.175781 121.046875 C 50.199219 124.648438 49.171875 128.410156 48.179688 131.996094 C 47.234375 135.429688 45.816406 139.6875 45.214844 143.0625 Z M 45.226562 143.039062 " fill-opacity="1" fill-rule="evenodd"/><path fill="#ffffff" d="M 78.367188 66.378906 C 76.535156 66.789062 75.425781 67.972656 74.292969 69.425781 C 70.460938 74.308594 70.371094 80.113281 72.726562 85.730469 C 75.648438 92.699219 82.363281 100.414062 88.199219 105.421875 C 93.832031 110.257812 105.972656 115.921875 113.527344 115.070312 C 119.265625 114.421875 123.753906 110.300781 123.894531 104.25 C 123.953125 101.777344 122.53125 101.746094 120.488281 100.753906 C 118.910156 99.988281 112.007812 96.195312 110.40625 96.769531 C 109.691406 97.027344 106.746094 101.066406 105.503906 102.394531 C 104.914062 103.027344 104.480469 103.558594 103.199219 103.25 C 97.65625 101.894531 90.648438 95.6875 87.167969 91.058594 C 83.09375 85.632812 84.285156 86.8125 87.421875 82.578125 C 88.667969 80.886719 89.234375 79.710938 88.265625 77.460938 C 87.519531 75.722656 86.863281 74.054688 86.148438 72.324219 C 84.523438 68.382812 84.121094 65.117188 78.367188 66.40625 Z M 78.367188 66.378906 " fill-opacity="1" fill-rule="evenodd"/></svg>