<svg xmlns="http://www.w3.org/2000/svg" xmlns:xlink="http://www.w3.org/1999/xlink" width="450" zoomAndPan="magnify" viewBox="0 0 337.5 206.249992" height="275" preserveAspectRatio="xMidYMid meet" version="1.0"><defs><clipPath id="ce18cda903"><path d="M 94.910156 0 L 242.34375 0 L 242.34375 205.503906 L 94.910156 205.503906 Z M 94.910156 0 " clip-rule="nonzero"/></clipPath><clipPath id="2869f9eda7"><path d="M 262 41.910156 L 336.640625 41.910156 L 336.640625 163.898438 L 262 163.898438 Z M 262 41.910156 " clip-rule="nonzero"/></clipPath><clipPath id="c46b033f49"><path d="M 0.363281 41.898438 L 75 41.898438 L 75 163.886719 L 0.363281 163.886719 Z M 0.363281 41.898438 " clip-rule="nonzero"/></clipPath></defs><g clip-path="url(#ce18cda903)"><path fill="#00061e" d="M 240.183594 141.824219 C 238.652344 136.355469 235.710938 130.789062 231.445312 125.289062 C 226.847656 119.355469 220.542969 113.136719 212.714844 106.808594 C 204.671875 100.3125 194.445312 93.449219 182.316406 86.40625 C 168.414062 78.308594 157.164062 71.1875 148.863281 65.222656 C 140.058594 58.90625 133.445312 53.128906 128.652344 47.5625 C 123.394531 41.472656 119.960938 35.34375 118.441406 29.363281 C 117.058594 23.902344 116.578125 18.035156 117.019531 11.925781 C 117.277344 8.371094 118.101562 4.886719 119.480469 1.507812 C 119.820312 0.675781 118.71875 0.0234375 118.15625 0.71875 C 115.613281 3.859375 113.386719 7.292969 111.503906 11.003906 C 107.910156 18.070312 105.777344 25.957031 105.164062 34.457031 C 104.667969 41.363281 104.910156 47.570312 105.894531 52.898438 C 106.753906 57.601562 108.855469 62.332031 112.140625 66.972656 C 115.738281 72.070312 121.03125 77.414062 127.882812 82.867188 C 135.109375 88.628906 144.933594 95.128906 157.074219 102.191406 L 157.171875 102.246094 C 169.976562 109.878906 180.609375 116.6875 188.777344 122.492188 C 197.476562 128.683594 204.140625 134.410156 209.152344 140.007812 C 214.671875 146.160156 218.414062 152.609375 220.273438 159.167969 C 222.027344 165.371094 222.648438 172.179688 222.128906 179.421875 C 221.644531 186.082031 219.839844 192.308594 216.761719 197.941406 C 215.617188 200.027344 214.324219 202.003906 212.886719 203.867188 C 212.253906 204.683594 213.246094 205.769531 214.109375 205.203125 C 215.0625 204.578125 216.003906 203.929688 216.921875 203.261719 C 223.800781 198.28125 229.613281 191.921875 234.199219 184.363281 C 238.699219 176.949219 241.226562 168.6875 241.917969 159.113281 C 242.339844 153.273438 241.757812 147.457031 240.183594 141.824219 Z M 127.054688 202.78125 C 122.875 200.21875 118.882812 197.238281 115.105469 193.871094 C 107.429688 187.015625 100.636719 178.3125 94.914062 167.996094 L 95.65625 201.460938 C 95.726562 201.425781 95.796875 201.394531 95.863281 201.367188 C 98.78125 200.054688 101.511719 199.683594 103.496094 199.640625 C 106.097656 199.585938 108.929688 199.8125 111.910156 200.320312 C 114.546875 200.769531 117.578125 201.453125 120.914062 202.351562 C 122.835938 202.875 124.738281 203.367188 126.617188 203.828125 C 127.257812 203.984375 127.617188 203.125 127.054688 202.78125 Z M 215.613281 0.425781 C 219.886719 1.726562 222.761719 2.367188 225.003906 2.53125 C 229.011719 2.820312 232.601562 2.269531 235.710938 0.894531 L 233.707031 28.65625 C 233.636719 28.484375 233.570312 28.3125 233.496094 28.136719 C 229.410156 18.140625 224.359375 9.816406 218.496094 3.386719 C 217.558594 2.359375 216.597656 1.371094 215.613281 0.425781 " fill-opacity="1" fill-rule="nonzero"/></g><g clip-path="url(#2869f9eda7)"><path fill="#00061e" d="M 285.179688 45.757812 C 282.695312 43.28125 279.390625 41.910156 275.875 41.910156 C 272.359375 41.910156 269.0625 43.28125 266.578125 45.757812 C 261.449219 50.871094 261.449219 59.191406 266.570312 64.316406 L 303.664062 101.363281 C 304.515625 102.214844 304.515625 103.59375 303.664062 104.445312 L 266.570312 141.492188 C 261.449219 146.609375 261.449219 154.9375 266.578125 160.050781 C 269.0625 162.539062 272.359375 163.898438 275.875 163.898438 C 279.390625 163.898438 282.695312 162.539062 285.179688 160.050781 L 333.160156 112.1875 C 335.652344 109.703125 337.027344 106.410156 337.027344 102.90625 C 337.027344 99.398438 335.652344 96.105469 333.160156 93.628906 L 285.179688 45.757812 " fill-opacity="1" fill-rule="nonzero"/></g><g clip-path="url(#c46b033f49)"><path fill="#00061e" d="M 52.058594 160.039062 C 54.542969 162.515625 57.847656 163.886719 61.367188 163.886719 C 64.882812 163.886719 68.179688 162.515625 70.664062 160.039062 C 75.792969 154.925781 75.792969 146.605469 70.671875 141.480469 L 33.578125 104.433594 C 32.722656 103.582031 32.722656 102.203125 33.578125 101.351562 L 70.671875 64.304688 C 75.792969 59.191406 75.792969 50.859375 70.664062 45.746094 C 68.179688 43.261719 64.882812 41.898438 61.367188 41.898438 C 57.847656 41.898438 54.542969 43.261719 52.058594 45.746094 L 4.082031 93.609375 C 1.589844 96.09375 0.214844 99.386719 0.214844 102.894531 C 0.214844 106.398438 1.589844 109.691406 4.082031 112.167969 L 52.058594 160.039062 " fill-opacity="1" fill-rule="nonzero"/></g></svg>